<?xml version="1.0" encoding="UTF-8" standalone="no"?>
<svg
   xmlns:dc="http://purl.org/dc/elements/1.1/"
   xmlns:cc="http://creativecommons.org/ns#"
   xmlns:rdf="http://www.w3.org/1999/02/22-rdf-syntax-ns#"
   xmlns:svg="http://www.w3.org/2000/svg"
   xmlns="http://www.w3.org/2000/svg"
   viewBox="0 0 2560 1440"
   height="1440"
   width="2560"
   xml:space="preserve"
   id="svg2"
   version="1.1"><metadata
     id="metadata8"><rdf:RDF><cc:Work
         rdf:about=""><dc:format>image/svg+xml</dc:format><dc:type
           rdf:resource="http://purl.org/dc/dcmitype/StillImage" /></cc:Work></rdf:RDF></metadata><defs
     id="defs6"><clipPath
       id="clipPath18"
       clipPathUnits="userSpaceOnUse"><path
         id="path16"
         d="M 0,1080 H 1920 V 0 H 0 Z" /></clipPath></defs><g
     transform="matrix(1.3333333,0,0,-1.3333333,0,1440)"
     id="g10"><g
       id="g12"><g
         clip-path="url(#clipPath18)"
         id="g14"><g
           transform="translate(709.361,138.6698)"
           id="g20"><path
             id="path22"
             style="fill:#003366;fill-opacity:1;fill-rule:nonzero;stroke:none"
             d="m 0,0 c 10.8,-23.495 -55.118,-35.67 -121.153,-35.67 -64.52,0 -129.153,11.625 -122.433,35.67 10.314,36.906 57.344,94.821 12.802,222.975 0.005,0.003 0.01,0.005 0.015,0.008 -9.993,28.75 -24.65,61.069 -45.308,97.443 9.787,5.766 17.482,13.385 22.752,22.551 17.188,-24.907 34.793,-51.406 55.764,-90.407 2.25,-4.184 10.559,-20.127 12.11,-23.186 4.978,-9.818 14.341,-15.362 23.036,-15.362 10.312,0 19.685,7.798 19.685,25.512 0,6.854 -0.064,16.381 -0.167,27.34 13.572,5.933 25.857,13.235 36.264,21.877 1.093,-8.393 2.111,-15.889 2.983,-21.814 3.057,-20.77 11.146,-28.966 20.648,-28.966 9.529,0 20.479,8.246 29.195,20.323 7.266,10.067 18.346,26.274 31.041,43.887 16.279,2.393 31.889,7.083 46.804,13.993 C -6.296,272.863 -36.921,207.387 -36.504,119.734 -36.294,75.806 -13.725,29.858 0,0" /></g><g
           transform="translate(914.0526,142.9095)"
           id="g24"><path
             id="path26"
             style="fill:#003366;fill-opacity:1;fill-rule:nonzero;stroke:none"
             d="m 0,0 c -13.052,4.484 -26.253,8.533 -39.579,12.12 -55.719,15.576 -113.342,24.539 -171.098,29.516 4.26,-10.599 8.792,-20.643 13.003,-29.78 C -129.417,8.249 -61.343,1.553 6.321,-8.898 l 1.882,5.876 C 5.471,-2.01 2.756,-0.947 0,0 m -451.565,24.089 c 2.158,5.129 4.471,10.646 6.757,16.593 -17.385,-1.735 -34.725,-3.803 -51.978,-6.331 -36.64,-5.368 -73.14,-12.255 -108.829,-22.231 -16.154,-4.349 -32.207,-9.294 -47.9,-15.11 l 1.85,-5.777 c 64.36,10.946 129.765,17.132 195.019,20.484 1.531,3.918 3.24,7.996 5.081,12.372" /></g><g
           transform="translate(970.9083,610.4897)"
           id="g28"><path
             id="path30"
             style="fill:#003366;fill-opacity:1;fill-rule:nonzero;stroke:none"
             d="m 0,0 c -11.372,-36.39 -56.032,-76.296 -127.209,-77.917 -41.864,-0.914 -73.449,7.385 -86.58,22.883 -5.335,6.297 -7.173,13.344 -5.617,21.534 4.131,21.73 18.813,23.065 67.108,16.343 56.158,-7.779 86.516,15.728 87.781,16.733 5.712,4.542 6.644,12.789 2.163,18.548 -4.477,5.755 -12.807,6.791 -18.627,2.375 -0.94,-0.711 -23.506,-17.409 -67.65,-11.281 -25.356,3.525 -52.79,7.324 -72.283,-2.084 -123.325,41.715 -100.834,149.752 -99.806,154.368 1.62,7.156 -2.857,14.276 -10.011,15.914 -7.138,1.635 -14.306,-2.834 -15.949,-10.002 -2.831,-12.351 -4.147,-28.267 -2.477,-45.723 -30.714,-4.308 -55.08,0.692 -72.484,14.97 -23.567,19.338 -35.554,56.248 -35.632,109.714 -0.047,31.729 -14.393,55.706 -40.179,68.788 16.745,8.915 45.58,19.721 87.382,19.721 40.149,0 68.822,-7.595 103.567,-28.241 -2.472,-2.408 -4.846,-4.989 -7.093,-7.764 -5.432,-6.711 -9.409,-13.459 -12.268,-20.085 -37.472,19.171 -81.697,13.649 -83.816,13.376 -7.289,-0.962 -12.42,-7.653 -11.459,-14.943 0.963,-7.289 7.68,-12.429 14.944,-11.458 0.458,0.057 43.397,5.427 74.107,-14.049 -1.091,-24.54 9.571,-43.083 10.284,-44.292 3.727,-6.297 11.814,-8.365 18.136,-4.694 6.328,3.684 8.473,11.818 4.833,18.167 -0.741,1.287 -17.816,31.88 5.937,61.223 12.781,15.789 30.28,22.662 49.314,19.373 21.795,-3.776 40.807,-20.27 48.434,-42.021 14.103,-40.182 33.83,-81.904 82.268,-114.836 2.293,-1.56 4.898,-2.305 7.472,-2.305 4.259,0 8.446,2.041 11.021,5.828 4.134,6.081 2.556,14.358 -3.524,18.492 -34.045,23.152 -51.996,50.833 -65.599,84.376 26.985,-1.447 80.794,-12.402 127.169,-71.495 13.639,-17.379 27.914,-42.398 18.492,-62.901 -9.17,-19.957 -36.82,-29.292 -49.583,-29.851 -28.186,-1.252 -98.289,7.203 -141.952,112.111 -2.825,6.795 -10.639,10.006 -17.404,7.176 -6.791,-2.826 -10.003,-10.618 -7.177,-17.405 18.033,-43.329 40.433,-72.277 63.292,-91.548 -5.759,-3.74 -14.216,-7.161 -26.12,-7.403 -29.067,-0.611 -52.981,22.747 -53.218,22.983 -5.194,5.177 -13.596,5.188 -18.799,0.005 -5.205,-5.188 -5.223,-13.618 -0.033,-18.828 1.284,-1.289 31.988,-31.634 72.605,-30.785 6.813,0.145 12.939,1.01 18.437,2.373 13.508,3.349 23.183,9.681 29.723,15.6 29.553,-17.393 57.713,-21.01 75.906,-21.01 2.105,0 4.086,0.048 5.911,0.13 15.898,0.698 42.26,8.837 59.978,27.16 C 9.366,59.299 7.834,25.071 0,0 m -599.269,183.389 c -0.126,-0.213 -0.247,-0.43 -0.365,-0.651 -16.512,-31.559 -33.45,-87.672 -19.658,-136.708 -70.317,7.491 -101.001,-25.043 -111.438,-40.543 -1.312,-1.95 -2.504,-3.955 -3.625,-5.991 -14.069,17.748 -34.212,50.812 -29.732,90.716 2.363,21.061 8.172,43.543 30.495,67.3 0.812,-43.747 18.336,-79.257 19.504,-81.571 3.307,-6.557 11.298,-9.192 17.859,-5.881 6.562,3.298 9.205,11.298 5.921,17.864 -0.387,0.762 -37.705,76.859 1.117,134.888 37.73,56.383 79.092,42.575 83.672,40.816 3.415,-1.304 14.211,-8.083 18.9,-21.604 5.365,-15.493 0.992,-35.771 -12.65,-58.635 M 9.06,112.617 c 5.765,18.477 4.553,46.387 -24.453,83.352 -59.928,76.363 -132.061,82.468 -158.639,81.827 -12.604,25.939 -37.165,45.11 -65.006,49.937 -15.133,2.623 -29.869,0.854 -43.199,-4.82 -43.695,28.039 -78.812,38.597 -127.833,38.597 -71.281,0 -111.056,-28.473 -120.804,-36.456 -42.591,5.157 -68.363,-19.612 -79.019,-33.097 -21.836,3.286 -64.524,0.824 -101.426,-54.34 -8.823,-13.187 -14.52,-26.919 -17.954,-40.563 -47.737,-36.792 -57.823,-73.121 -61.276,-103.869 -7.046,-62.774 33.204,-109.562 46.839,-123.436 -2.176,-19.725 2.744,-40.446 14.774,-58.396 17.056,-25.454 55.16,-51.595 104.782,-59.664 17.534,-29.265 54.992,-50.479 100.122,-57.734 -4.674,9.996 -9.82,20.217 -15.36,30.609 -19.274,5.457 -35.949,13.974 -48.067,24.652 0.861,0.023 1.709,0.018 2.574,0.051 39.346,1.586 63.65,20.729 65.006,51.204 0.676,15.19 -5.612,29.205 -18.18,40.534 -25.383,22.874 -70.229,30.132 -101.467,25.46 -7.272,-1.083 -12.286,-7.861 -11.198,-15.133 1.083,-7.272 7.839,-12.273 15.133,-11.199 28.248,4.209 63.26,-4.09 79.703,-18.907 6.652,-5.994 9.729,-12.395 9.408,-19.572 -0.892,-20.031 -21.959,-25.075 -39.476,-25.777 -55.737,-2.245 -102.974,23.61 -120.86,50.298 -13.911,20.754 -14.609,45.448 -1.824,64.447 8.301,12.329 34.681,39.078 101.856,26.671 8.394,-13.647 20.165,-26.065 36.312,-36.318 39.585,-25.136 78.897,-33.994 114.195,-33.994 25.184,0.002 48.271,4.543 67.991,10.876 11.086,-15.281 40.74,-48.809 92.588,-57.859 0.772,-0.134 1.544,-0.203 2.306,-0.203 6.345,0 11.97,4.559 13.097,11.03 1.265,7.241 -3.58,14.136 -10.826,15.402 -36.655,6.401 -60.005,28.329 -71.202,41.712 14.768,6.838 26.139,14.11 33.004,19.754 5.677,4.667 6.496,13.057 1.829,18.738 -4.663,5.678 -13.049,6.502 -18.739,1.829 -30.93,-25.426 -122.949,-60.07 -209.967,-4.81 -32.724,20.781 -46.293,54.471 -40.33,100.145 4.49,34.384 18.787,63.437 20.347,66.527 17.872,30.107 22.821,57.228 14.718,80.622 -4.973,14.349 -14.011,24.343 -22.284,30.624 9.63,9.573 27.425,21.425 54.015,16.614 30.367,-5.483 45.787,-22.861 45.83,-51.65 0.068,-45.953 8.539,-81.944 25.21,-107.518 -21.972,-12.749 -61.477,-42.665 -65.527,-94.665 -0.568,-7.329 4.91,-13.734 12.243,-14.306 0.351,-0.026 0.698,-0.039 1.044,-0.039 6.887,0 12.715,5.3 13.261,12.282 3.36,43.167 41.097,67.711 56.761,76.101 0.795,-0.699 1.56,-1.44 2.378,-2.111 18.302,-15.012 41.401,-22.553 68.951,-22.553 8.003,0 16.401,0.667 25.148,1.941 10.881,-40.698 39.96,-84.196 103.405,-109.307 -1.929,-4.255 -3.477,-9.101 -4.539,-14.69 -3.063,-16.131 0.902,-31.246 11.463,-43.715 5.837,-6.89 13.448,-12.698 22.658,-17.426 -39.311,-37.886 -81.715,-45.712 -118.529,-41.404 1.015,-8.79 0.632,-17.52 -0.47,-26.221 6.501,-0.72 13.142,-1.135 19.907,-1.135 40.766,0 85.623,14.447 126.675,58.965 14.507,-3.395 31.228,-5.149 50.021,-5.148 2.375,0 4.793,0.026 7.237,0.083 38.021,0.862 72.934,11.562 100.96,30.934 25.119,17.361 43.251,40.681 51.056,65.657 10.738,34.347 11.593,83.122 -16.353,120.56" /></g><g
           transform="translate(594.7077,404.3611)"
           id="g32"><path
             id="path34"
             style="fill:#003366;fill-opacity:1;fill-rule:nonzero;stroke:none"
             d="M 0,0 C 35.143,14.519 32.912,64.794 31.597,77.944 30.281,91.095 16.69,145.688 -44.345,130.875 -92.844,119.104 -93.995,74.07 -87.249,53.002 -75.699,16.937 -35.204,-14.544 0,0" /></g><g
           transform="translate(1135.1553,394.2416)"
           id="g36"><path
             id="path38"
             style="fill:#003366;fill-opacity:1;fill-rule:nonzero;stroke:none"
             d="m 0,0 c -8.816,0 -14.737,5.449 -14.737,13.559 v 5.178 c 0,51.938 40.869,70.063 73.711,84.63 30.052,13.685 58.498,26.64 58.498,60.229 0,29.044 -20.537,48.56 -51.103,48.56 -28.898,0 -48.143,-17.584 -50.217,-45.884 C 15.255,157.57 9.72,152.615 0.949,152.448 H 0 c -4.646,0 -8.663,1.661 -11.315,4.678 -2.561,2.919 -3.662,6.908 -3.099,11.245 3.482,44.223 35.907,74.17 80.651,74.17 48.285,0 82.01,-32.408 82.01,-78.806 0,-52.486 -39.903,-70.264 -75.109,-85.951 C 45.811,65.608 21.886,54.947 17.024,30.51 h 112.145 c 8.677,0 14.738,-6.06 14.738,-14.74 V 14.734 C 143.907,6.06 137.846,0 129.169,0 Z" /></g><g
           transform="translate(1380.3201,562.4733)"
           id="g40"><path
             id="path42"
             style="fill:#003366;fill-opacity:1;fill-rule:nonzero;stroke:none"
             d="m 0,0 c -29.075,0 -45.088,-18.181 -45.088,-51.201 v -38.954 c 0,-23.825 7.822,-52.223 45.088,-52.223 28.533,0 44.897,18.105 44.897,49.665 v 45.71 C 44.897,-17.57 28.113,0 0,0 m 0.32,-235.959 c -55.784,0 -70.407,28.585 -72.847,52.562 -0.705,3.788 0.254,7.833 2.773,10.849 2.603,3.114 6.578,4.831 11.19,4.831 8.569,0 13.712,-4.059 15.867,-12.052 2.14,-12.6 8.746,-28.446 43.017,-28.446 32.494,0 44.577,11.905 44.577,43.938 v 12.009 c -11.985,-11.543 -28.87,-17.861 -48.848,-17.861 -44.115,0 -71.519,30.191 -71.519,78.785 v 41.728 c 0,47.809 26.952,77.506 70.334,77.506 20.589,0 38.444,-6.421 50.69,-17.604 v 1.161 c 0,8.819 5.939,14.741 14.779,14.741 8.858,0 14.81,-5.922 14.81,-14.741 v -173.222 c 0,-51.993 -22.382,-74.177 -74.823,-74.184" /></g><g
           transform="translate(1600.2875,507.881)"
           id="g44"><path
             id="path46"
             style="fill:#003366;fill-opacity:1;fill-rule:nonzero;stroke:none"
             d="m 0,0 v 6.081 c 0,31.525 -15.526,48.192 -44.9,48.192 -28.735,0 -45.217,-17.528 -45.217,-48.088 l 0,-6.185 z m -44.9,-115.53 c -46.552,0 -75.467,30.024 -75.467,78.354 v 40.86 c 0,48.726 28.915,78.993 75.467,78.993 47.055,0 75.146,-28.933 75.146,-77.388 v -17.514 c 0,-8.674 -6.06,-14.734 -14.737,-14.734 H -90.117 v -12.719 c 0,-29.787 16.902,-47.572 45.217,-47.572 26.722,0 44.083,14.136 45.303,36.89 0.747,8.841 5.967,13.789 14.335,13.789 9.396,0 15.307,-5.407 15.376,-13.455 0.073,-16.569 -6.387,-32.199 -18.184,-44.049 -13.775,-13.838 -33.958,-21.455 -56.83,-21.455" /></g><g
           transform="translate(1718.8859,392.9489)"
           id="g48"><path
             id="path50"
             style="fill:#003366;fill-opacity:1;fill-rule:nonzero;stroke:none"
             d="m 0,0 c -24.645,0 -40.532,6.484 -49.998,20.398 -8.031,11.808 -11.304,28.162 -11.304,56.455 v 90.135 h -6.054 c -8.809,0 -14.731,5.518 -14.731,13.74 0,10.654 9.126,13.26 12.121,14.122 l 1.13,0.223 c 3.992,0.465 6.689,1.821 8.743,4.399 0.969,1.223 2.7,6.887 3.138,16.763 1.685,13.073 9.907,14.422 13.365,14.422 7.453,0 12.659,-5.574 12.659,-13.553 V 195.51 h 37.93 c 8.951,0 14.737,-5.594 14.737,-14.261 0,-8.402 -6.06,-14.268 -14.737,-14.268 h -37.93 V 78.556 c 0,-41.276 5.139,-49.067 32.356,-49.067 1.744,0 3.569,0.042 5.48,0.118 h 0.021 c 9.452,0 15.425,-5.789 15.425,-14.4 C 22.351,5.901 16.565,0.271 6.874,0.16 4.663,0.056 2.283,0 0,0" /></g></g></g></g></svg>