<?xml version="1.0" encoding="UTF-8" standalone="no"?>
<!DOCTYPE svg PUBLIC "-//W3C//DTD SVG 1.1//EN" "http://www.w3.org/Graphics/SVG/1.1/DTD/svg11.dtd">
<svg xmlns="http://www.w3.org/2000/svg" version="1.1" viewBox="0.00 0.00 640.00 640.00">
<g stroke-width="2.00" fill="none" stroke-linecap="butt">
<path stroke="#690000" vector-effect="non-scaling-stroke" d="
  M 550.46 330.53
  C 546.24 330.92 540.31 322.95 536.13 318.37
  Q 525.42 306.62 504.34 289.34"
/>
<path stroke="#e98080" vector-effect="non-scaling-stroke" d="
  M 404.59 108.24
  Q 401.99 105.68 397.98 104.94"
/>
<path stroke="#690000" vector-effect="non-scaling-stroke" d="
  M 397.98 104.94
  Q 398.26 103.67 397.44 103.33
  Q 393.84 101.87 391.39 100.65
  C 388.87 99.41 385.42 98.71 382.63 96.48"
/>
<path stroke="#e98080" vector-effect="non-scaling-stroke" d="
  M 382.63 96.48
  Q 381.38 95.98 380.93 96.48"
/>
<path stroke="#690000" vector-effect="non-scaling-stroke" d="
  M 260.07 485.03
  Q 261.71 486.08 266.51 486.72
  Q 274.95 487.84 283.56 487.84
  A 0.68 0.67 84.7 0 0 284.22 487.04
  Q 283.82 485.04 285.26 485.16"
/>
<path stroke="#690000" vector-effect="non-scaling-stroke" d="
  M 502.04 316.29
  L 504.86 315.52
  A 1.02 1.00 56.7 0 1 505.75 315.71
  Q 524.61 330.72 537.29 351.08
  C 539.83 355.16 540.53 360.13 541.88 364.75"
/>
<path stroke="#690000" vector-effect="non-scaling-stroke" d="
  M 302.50 543.05
  Q 291.34 544.20 277.24 542.88"
/>
<path stroke="#808080" vector-effect="non-scaling-stroke" d="
  M 380.52 97.96
  Q 380.31 98.73 381.97 98.36
  Q 382.79 98.18 382.63 96.48"
/>
<path stroke="#808080" vector-effect="non-scaling-stroke" d="
  M 397.98 104.94
  Q 397.11 105.54 397.41 105.84
  Q 399.44 107.89 402.06 109.55"
/>
<path stroke="#434343" vector-effect="non-scaling-stroke" d="
  M 425.40 156.14
  Q 424.47 159.79 425.34 161.65"
/>
<path stroke="#808080" vector-effect="non-scaling-stroke" d="
  M 425.34 161.65
  L 425.56 164.31"
/>
<path stroke="#434343" vector-effect="non-scaling-stroke" d="
  M 425.56 164.31
  Q 424.74 167.62 425.37 170.64"
/>
<path stroke="#434343" vector-effect="non-scaling-stroke" d="
  M 243.21 131.13
  Q 246.16 125.93 249.71 119.70
  Q 250.15 118.92 249.52 118.75"
/>
<path stroke="#434343" vector-effect="non-scaling-stroke" d="
  M 428.31 264.15
  Q 427.44 268.86 424.17 274.24"
/>
<path stroke="#434343" vector-effect="non-scaling-stroke" d="
  M 392.53 330.59
  L 386.71 328.08"
/>
<path stroke="#c3c3c2" vector-effect="non-scaling-stroke" d="
  M 386.71 328.08
  L 405.77 288.65
  Q 405.80 288.60 405.74 288.58
  Q 405.62 288.54 405.48 288.49
  Q 405.21 288.38 405.08 288.64
  L 385.75 327.72"
/>
<path stroke="#434343" vector-effect="non-scaling-stroke" d="
  M 385.75 327.72
  L 381.92 326.11"
/>
<path stroke="#434343" vector-effect="non-scaling-stroke" d="
  M 404.02 271.56
  Q 405.55 265.40 408.62 260.67"
/>
<path stroke="#c3c3c2" vector-effect="non-scaling-stroke" d="
  M 425.56 164.31
  C 434.20 168.87 439.20 180.86 440.49 189.95
  C 441.07 194.02 440.50 198.75 440.25 203.10
  A 0.15 0.15 0.0 0 0 440.55 203.16
  C 445.46 187.83 439.45 169.64 425.34 161.65"
/>
<path stroke="#808080" vector-effect="non-scaling-stroke" d="
  M 238.51 121.46
  Q 239.64 121.45 241.24 120.62"
/>
<path stroke="#434343" vector-effect="non-scaling-stroke" d="
  M 207.04 290.93
  L 199.80 289.78
  A 1.08 1.07 31.2 0 0 198.97 289.98
  L 197.09 291.40"
/>
<path stroke="#c3c3c2" vector-effect="non-scaling-stroke" d="
  M 200.83 164.22
  Q 201.00 164.76 201.52 164.78
  A 0.73 0.72 -79.8 0 0 202.23 164.28
  C 204.87 156.12 208.08 147.84 212.96 140.73
  Q 215.05 137.69 217.00 134.42"
/>
<path stroke="#c3c3c2" vector-effect="non-scaling-stroke" d="
  M 219.73 132.22
  L 226.10 128.19
  Q 226.48 127.96 226.18 127.62
  Q 225.95 127.36 225.78 127.46"
/>
<path stroke="#c3c3c2" vector-effect="non-scaling-stroke" d="
  M 229.93 125.17
  Q 229.93 125.41 229.98 125.60
  Q 230.10 126.11 230.55 125.84
  C 235.77 122.77 241.20 120.87 247.31 121.01
  A 0.91 0.91 0.0 0 0 247.55 119.22
  Q 247.51 119.21 246.98 119.24"
/>
<path stroke="#c3c3c2" vector-effect="non-scaling-stroke" d="
  M 202.07 159.85
  Q 203.42 158.37 203.45 155.99"
/>
<path stroke="#808080" vector-effect="non-scaling-stroke" d="
  M 386.71 328.08
  Q 386.13 328.01 385.75 327.72"
/>
<path stroke="#e98080" vector-effect="non-scaling-stroke" d="
  M 317.55 49.79
  C 320.01 49.77 325.97 50.14 326.77 52.77
  C 328.47 58.39 321.89 58.30 318.15 58.25
  A 0.71 0.71 0.0 0 0 317.43 58.92
  L 317.18 63.38
  Q 317.16 63.87 317.64 63.94
  Q 326.62 65.39 332.94 61.51
  C 339.80 57.29 336.87 48.09 330.01 45.93
  Q 320.78 43.04 308.77 43.73
  Q 308.33 43.75 308.33 44.19
  L 308.05 63.40
  A 0.60 0.59 0.5 0 0 308.65 64.00
  L 315.42 64.00
  Q 316.09 64.00 316.13 63.33
  L 316.90 50.40
  A 0.66 0.65 1.4 0 1 317.55 49.79"
/>
<path stroke="#e98080" vector-effect="non-scaling-stroke" d="
  M 293.2236 53.5862
  A 16.06 10.12 -8.5 0 0 275.8442 45.9512
  A 16.06 10.12 -8.5 0 0 261.4564 58.3338
  A 16.06 10.12 -8.5 0 0 278.8358 65.9688
  A 16.06 10.12 -8.5 0 0 293.2236 53.5862"
/>
<path stroke="#e98080" vector-effect="non-scaling-stroke" d="
  M 347.58 62.96
  L 349.77 63.28
  A 0.71 0.70 10.4 0 0 350.57 62.74
  L 351.57 58.23
  Q 351.66 57.79 351.23 57.69
  L 349.40 57.28
  A 1.82 1.82 0.0 0 1 349.77 53.69
  Q 351.45 53.67 352.94 54.44
  A 0.81 0.81 0.0 0 1 353.36 55.34
  L 350.48 67.71
  Q 350.33 68.34 350.97 68.49
  L 357.93 70.08
  Q 358.40 70.19 358.54 69.72
  Q 360.31 63.72 361.73 57.63
  C 362.60 53.86 361.77 51.55 358.29 49.97
  C 353.18 47.64 341.48 45.10 340.01 53.25
  Q 338.94 59.20 338.13 65.39
  A 0.75 0.75 0.0 0 0 338.75 66.22
  L 345.51 67.29
  A 0.68 0.67 9.1 0 0 346.28 66.74
  L 346.84 63.49
  A 0.65 0.65 0.0 0 1 347.58 62.96"
/>
<path stroke="#e98080" vector-effect="non-scaling-stroke" d="
  M 239.82 59.86
  C 242.09 58.91 248.95 57.01 250.19 60.32
  C 252.01 65.21 246.41 66.58 243.14 67.82
  Q 242.64 68.01 242.79 68.53
  L 244.06 72.93
  Q 244.23 73.50 244.81 73.37
  C 251.07 71.92 260.95 67.10 259.94 59.44
  C 258.23 46.54 236.06 54.50 229.79 57.07
  A 0.54 0.54 0.0 0 0 229.48 57.74
  L 235.47 75.72
  Q 235.64 76.22 236.14 76.06
  L 242.42 74.02
  A 0.95 0.94 -16.7 0 0 243.04 72.87
  L 239.55 60.42
  A 0.47 0.47 0.0 0 1 239.82 59.86"
/>
<path stroke="#e98080" vector-effect="non-scaling-stroke" d="
  M 390.16 74.61
  C 387.30 74.05 383.64 70.87 385.34 67.64
  C 387.11 64.29 393.71 66.61 396.44 68.14
  A 0.67 0.67 0.0 0 0 397.39 67.81
  L 399.04 63.82
  A 0.61 0.61 0.0 0 0 398.77 63.05
  C 392.37 59.60 384.42 56.99 378.58 60.83
  C 374.70 63.38 374.48 68.09 376.93 71.89
  C 380.46 77.33 389.42 82.85 396.26 80.71
  Q 400.99 79.23 399.51 74.23
  C 398.75 71.63 392.56 69.69 390.35 69.08
  Q 389.78 68.92 389.58 69.48
  L 388.33 72.88
  A 0.71 0.70 18.1 0 0 388.80 73.80
  L 390.25 74.21
  A 0.21 0.20 58.1 0 1 390.16 74.61"
/>
<path stroke="#e98080" vector-effect="non-scaling-stroke" d="
  M 214.09 69.38
  L 216.79 68.39
  A 0.89 0.88 68.5 0 1 217.92 68.89
  L 222.66 80.60
  Q 222.87 81.11 223.38 80.91
  L 229.81 78.46
  Q 230.41 78.22 230.21 77.61
  Q 228.19 71.56 225.85 65.62
  C 222.82 57.92 211.80 63.04 207.71 66.98
  C 202.61 71.89 208.82 80.49 211.32 85.76
  Q 211.56 86.26 212.06 86.02
  L 218.37 82.97
  A 0.65 0.64 -24.7 0 0 218.68 82.14
  L 213.64 70.41
  Q 213.31 69.66 214.09 69.38"
/>
<path stroke="#e98080" vector-effect="non-scaling-stroke" d="
  M 410.14 83.31
  L 417.03 87.06
  A 0.65 0.65 0.0 0 0 417.92 86.80
  L 419.75 83.38
  A 0.55 0.55 0.0 0 0 419.55 82.65
  L 414.07 79.37
  A 0.98 0.98 0.0 0 1 415.06 77.67
  L 421.85 81.51
  A 0.48 0.48 0.0 0 0 422.49 81.34
  L 424.87 77.56
  A 0.76 0.75 -57.8 0 0 424.64 76.52
  C 420.97 74.17 409.30 65.95 405.60 71.62
  C 403.71 74.53 400.13 80.30 401.42 83.84
  C 403.05 88.31 410.32 91.62 414.31 93.94
  A 0.65 0.64 -59.4 0 0 415.19 93.71
  L 417.11 90.49
  A 1.46 1.46 0.0 0 0 416.62 88.49
  L 409.61 84.22
  Q 409.37 84.08 409.47 83.82
  Q 409.52 83.68 409.57 83.53
  Q 409.72 83.08 410.14 83.31"
/>
<path stroke="#e98080" vector-effect="non-scaling-stroke" d="
  M 191.20 84.46
  C 189.06 82.36 190.93 79.29 193.54 80.24
  Q 193.96 80.40 194.17 80.79
  L 199.93 91.37
  A 0.59 0.59 0.0 0 0 200.71 91.62
  L 206.92 88.60
  A 0.55 0.55 0.0 0 0 207.18 87.87
  Q 204.54 82.08 201.54 76.37
  C 196.66 67.10 177.46 79.37 182.64 87.33
  Q 185.99 92.47 189.27 97.77
  Q 189.57 98.26 190.05 97.96
  L 195.84 94.33
  Q 196.41 93.98 196.08 93.39
  L 194.45 90.49
  Q 194.14 89.93 194.71 89.65
  L 196.72 88.65
  A 0.65 0.65 0.0 0 0 196.98 87.73
  L 194.48 83.58
  A 0.60 0.60 0.0 0 0 193.63 83.39
  L 191.92 84.53
  A 0.57 0.57 0.0 0 1 191.20 84.46"
/>
<path stroke="#e98080" vector-effect="non-scaling-stroke" d="
  M 425.19 84.69
  Q 423.06 87.53 418.27 95.82
  Q 418.03 96.24 418.43 96.51
  L 424.91 100.82
  Q 425.37 101.13 425.69 100.67
  L 433.06 89.92
  Q 433.40 89.43 433.89 89.75
  L 436.96 91.71
  A 0.80 0.80 0.0 0 1 437.18 92.84
  L 429.71 103.63
  A 0.56 0.56 0.0 0 0 429.82 104.39
  L 436.21 109.36
  A 0.58 0.57 37.2 0 0 437.03 109.25
  Q 440.48 104.62 444.13 99.87
  Q 447.78 95.11 443.75 90.51
  C 439.98 86.22 430.01 78.23 425.19 84.69"
/>
<path stroke="#e98080" vector-effect="non-scaling-stroke" d="
  M 163.35 98.84
  Q 165.92 96.44 169.26 95.28
  C 173.86 93.68 175.74 98.44 173.05 101.57
  Q 172.28 102.47 169.33 104.98
  A 0.64 0.63 -38.0 0 0 169.22 105.83
  L 171.83 109.63
  Q 172.08 109.99 172.45 109.77
  Q 177.17 106.97 180.19 102.69
  C 183.73 97.69 184.69 90.54 177.92 87.98
  C 170.09 85.01 158.60 94.66 152.67 99.82
  Q 152.35 100.10 152.62 100.42
  L 164.60 114.78
  Q 165.14 115.43 165.82 114.92
  L 170.60 111.29
  A 1.18 1.18 0.0 0 0 170.83 109.64
  L 163.28 99.66
  Q 162.95 99.22 163.35 98.84"
/>
<path stroke="#e98080" vector-effect="non-scaling-stroke" d="
  M 453.36 104.87
  A 0.68 0.68 0.0 0 1 453.43 105.83
  L 444.95 115.84
  A 0.68 0.68 0.0 0 0 445.01 116.78
  L 451.01 122.26
  A 0.68 0.68 0.0 0 0 451.97 122.23
  L 460.82 112.69
  A 0.68 0.68 0.0 0 1 461.80 112.67
  L 466.90 117.78
  A 0.68 0.68 0.0 0 0 467.86 117.77
  L 471.17 114.43
  A 0.68 0.68 0.0 0 0 471.15 113.45
  L 451.66 95.59
  A 0.68 0.68 0.0 0 0 450.64 95.71
  L 448.03 99.51
  A 0.68 0.68 0.0 0 0 448.15 100.41
  L 453.36 104.87"
/>
<path stroke="#e98080" vector-effect="non-scaling-stroke" d="
  M 147.4492 104.5966
  A 0.49 0.49 0.0 0 0 146.7570 104.5640
  L 141.1950 109.6250
  A 0.49 0.49 0.0 0 0 141.1624 110.3172
  L 154.0708 124.5034
  A 0.49 0.49 0.0 0 0 154.7630 124.5360
  L 160.3250 119.4750
  A 0.49 0.49 0.0 0 0 160.3576 118.7828
  L 147.4492 104.5966"
/>
<path stroke="#e98080" vector-effect="non-scaling-stroke" d="
  M 136.80 132.78
  L 127.24 124.40
  A 0.65 0.64 -47.6 0 0 126.35 124.45
  L 121.46 129.69
  A 0.85 0.85 0.0 0 0 121.50 130.89
  Q 125.92 135.05 130.85 138.66
  C 136.20 142.57 141.81 138.45 144.80 133.83
  C 150.46 125.11 142.20 119.85 136.65 114.56
  A 0.62 0.62 0.0 0 0 135.80 114.57
  L 130.27 120.11
  A 0.49 0.48 44.6 0 0 130.28 120.81
  L 139.69 129.59
  A 0.67 0.66 -49.7 0 1 139.76 130.48
  L 138.04 132.67
  A 0.86 0.86 0.0 0 1 136.80 132.78"
/>
<path stroke="#e98080" vector-effect="non-scaling-stroke" d="
  M 477.75 130.28
  Q 478.32 130.42 478.92 131.11
  Q 481.42 133.98 483.94 137.08
  A 0.67 0.67 0.0 0 0 484.90 137.17
  L 488.43 134.19
  Q 488.84 133.85 488.51 133.43
  C 484.66 128.56 475.35 115.36 469.51 120.76
  C 467.25 122.84 462.28 126.74 462.14 129.91
  C 461.95 134.16 470.04 143.10 473.11 146.01
  Q 473.43 146.31 473.77 146.03
  L 476.91 143.41
  A 1.03 1.03 0.0 0 0 477.04 141.96
  L 470.85 134.46
  A 0.34 0.34 0.0 0 1 470.91 133.97
  L 471.11 133.82
  Q 471.53 133.51 471.88 133.91
  L 477.60 140.50
  Q 477.86 140.80 478.17 140.55
  L 481.31 138.01
  A 0.51 0.50 51.6 0 0 481.39 137.31
  L 476.94 131.54
  A 0.79 0.79 0.0 0 1 477.75 130.28"
/>
<path stroke="#e98080" vector-effect="non-scaling-stroke" d="
  M 121.12 153.17
  C 113.84 164.97 106.43 148.60 118.92 145.72
  Q 119.40 145.61 119.70 145.21
  L 124.71 138.44
  A 0.43 0.43 0.0 0 0 124.45 137.76
  C 115.46 135.74 107.71 145.13 105.39 152.56
  C 102.73 161.08 107.82 169.54 117.28 164.43
  C 124.96 160.29 133.94 148.43 127.05 139.71
  Q 126.61 139.15 126.14 139.70
  L 121.02 145.74
  A 0.81 0.80 50.5 0 0 120.94 146.67
  Q 122.97 150.19 121.12 153.17"
/>
<path stroke="#e98080" vector-effect="non-scaling-stroke" d="
  M 87.8213 204.8986
  A 16.28 10.15 114.8 0 0 103.8639 194.3774
  A 16.28 10.15 114.8 0 0 101.4787 175.3414
  A 16.28 10.15 114.8 0 0 85.4361 185.8626
  A 16.28 10.15 114.8 0 0 87.8213 204.8986"
/>
<path stroke="#e98080" vector-effect="non-scaling-stroke" d="
  M 81.71 211.53
  L 83.59 205.73
  A 0.64 0.63 19.8 0 0 83.22 204.95
  L 79.01 203.25
  Q 78.52 203.06 78.34 203.55
  Q 74.25 214.46 71.75 225.83
  Q 71.62 226.40 72.18 226.54
  L 76.61 227.65
  Q 77.17 227.79 77.31 227.23
  L 78.80 221.29
  A 0.75 0.74 15.0 0 1 79.72 220.76
  L 92.49 224.22
  Q 93.10 224.39 93.26 223.77
  L 95.06 217.07
  Q 95.24 216.40 94.58 216.19
  L 82.06 212.21
  Q 81.55 212.05 81.71 211.53"
/>
<path stroke="#e98080" vector-effect="non-scaling-stroke" d="
  M 82.20 239.27
  L 83.54 232.31
  A 0.66 0.65 11.6 0 0 83.04 231.56
  L 79.29 230.72
  A 0.64 0.63 -78.6 0 0 78.53 231.23
  L 77.46 236.93
  A 0.96 0.96 0.0 0 1 75.65 237.18
  Q 75.14 236.17 75.58 234.69
  Q 76.28 232.33 76.73 229.83
  Q 76.85 229.18 76.22 228.99
  L 71.71 227.60
  A 0.57 0.57 0.0 0 0 70.98 228.03
  C 69.80 233.72 65.14 246.19 75.42 247.98
  C 82.26 249.17 86.35 250.70 88.74 242.21
  Q 90.02 237.68 90.73 232.93
  Q 90.82 232.35 90.25 232.19
  L 86.05 231.01
  Q 85.56 230.87 85.41 231.35
  Q 84.06 235.68 83.69 238.47
  Q 83.56 239.48 83.03 239.82
  A 0.54 0.54 0.0 0 1 82.20 239.27"
/>
<path stroke="#e98080" vector-effect="non-scaling-stroke" d="
  M 85.98 265.42
  C 89.52 252.06 74.90 253.66 67.34 252.37
  Q 66.85 252.28 66.81 252.78
  L 66.16 261.06
  Q 66.11 261.62 66.67 261.67
  Q 72.21 262.21 77.75 262.75
  Q 80.32 263.00 80.55 264.83
  Q 80.63 265.42 81.23 265.47
  L 85.42 265.81
  Q 85.86 265.85 85.98 265.42"
/>
<path stroke="#e98080" vector-effect="non-scaling-stroke" d="
  M 76.4849 300.4693
  A 17.62 10.13 88.0 0 0 85.9938 282.5065
  A 17.62 10.13 88.0 0 0 75.2551 265.2507
  A 17.62 10.13 88.0 0 0 65.7462 283.2135
  A 17.62 10.13 88.0 0 0 76.4849 300.4693"
/>
<path stroke="#e98080" vector-effect="non-scaling-stroke" d="
  M 78.66 306.45
  C 77.76 304.37 75.65 302.34 73.25 302.68
  C 65.26 303.81 69.99 323.41 71.51 329.68
  Q 71.63 330.18 72.14 330.08
  L 90.50 326.20
  A 0.63 0.62 79.8 0 0 90.99 325.49
  L 89.66 317.57
  Q 89.57 317.02 89.02 317.09
  L 75.72 318.95
  Q 75.15 319.03 75.09 318.47
  L 74.47 313.21
  A 0.74 0.73 -57.2 0 1 75.90 312.90
  L 77.25 317.11
  Q 77.35 317.43 77.68 317.44
  C 82.57 317.67 84.82 314.96 88.17 311.03
  Q 88.50 310.63 88.42 310.12
  L 86.98 301.51
  A 0.44 0.44 0.0 0 0 86.26 301.25
  L 79.70 306.70
  A 0.67 0.67 0.0 0 1 78.66 306.45"
/>
<path stroke="#e98080" vector-effect="non-scaling-stroke" d="
  M 82.41 344.67
  L 83.46 346.56
  A 0.64 0.63 -22.1 0 0 84.18 346.86
  L 88.29 345.70
  Q 88.77 345.56 88.69 345.07
  C 87.97 340.84 84.11 330.58 78.55 333.29
  C 70.55 337.18 78.19 362.19 87.58 359.62
  Q 92.70 358.22 99.39 355.37
  Q 99.79 355.20 99.66 354.77
  L 96.87 346.22
  Q 96.71 345.72 96.22 345.88
  L 83.91 349.73
  Q 83.14 349.97 82.89 349.20
  L 81.58 345.03
  A 0.46 0.45 -68.3 0 1 82.41 344.67"
/>
<path stroke="#e98080" vector-effect="non-scaling-stroke" d="
  M 517.84 368.06
  A 0.83 0.83 0.0 0 1 519.16 368.96
  C 514.63 382.80 500.64 370.83 509.35 363.09
  A 0.44 0.44 0.0 0 0 509.18 362.33
  L 502.75 360.49
  Q 502.21 360.33 502.01 360.86
  Q 499.75 366.62 499.57 368.57
  C 497.57 389.31 525.60 388.13 525.56 368.25
  C 525.54 362.02 519.97 357.04 514.03 360.89
  Q 513.62 361.15 513.46 361.61
  L 511.02 368.55
  Q 510.79 369.20 511.44 369.42
  L 515.61 370.82
  A 1.05 1.04 10.2 0 0 516.99 369.87
  Q 517.02 368.75 517.84 368.06"
/>
<path stroke="#e98080" vector-effect="non-scaling-stroke" d="
  M 480.89 418.62
  Q 487.85 423.81 495.17 428.54
  Q 495.62 428.83 495.92 428.38
  L 500.18 422.05
  A 0.65 0.63 33.7 0 0 499.99 421.16
  L 486.22 412.10
  A 1.09 1.08 70.5 0 1 487.14 410.16
  C 491.28 411.49 497.42 416.26 501.23 418.67
  A 0.86 0.85 31.9 0 0 502.42 418.40
  L 506.25 412.08
  Q 506.69 411.34 505.95 410.92
  L 491.62 402.66
  A 1.00 0.99 -24.8 0 1 492.30 400.82
  C 496.50 401.56 503.49 406.39 507.38 408.71
  Q 507.97 409.06 508.28 408.46
  L 511.91 401.45
  Q 512.20 400.91 511.65 400.63
  Q 504.60 397.00 497.57 393.40
  C 490.08 389.56 483.97 395.89 485.47 403.36
  Q 485.58 403.90 485.06 404.06
  C 478.74 405.97 474.89 414.13 480.89 418.62"
/>
<path stroke="#e98080" vector-effect="non-scaling-stroke" d="
  M 480.4116 434.6529
  A 0.61 0.61 0.0 0 0 480.3214 433.7950
  L 477.3994 431.4287
  A 0.61 0.61 0.0 0 0 476.5414 431.5189
  L 471.3684 437.9071
  A 0.61 0.61 0.0 0 0 471.4586 438.7650
  L 474.3806 441.1313
  A 0.61 0.61 0.0 0 0 475.2386 441.0411
  L 480.4116 434.6529"
/>
<path stroke="#e98080" vector-effect="non-scaling-stroke" d="
  M 460.68 459.82
  C 464.92 463.64 471.02 459.74 473.51 455.73
  Q 473.73 455.38 473.43 455.10
  L 468.92 450.96
  A 0.41 0.40 -45.5 0 0 468.36 450.97
  L 466.52 452.71
  Q 465.94 453.26 465.36 452.70
  L 453.79 441.52
  Q 453.44 441.18 453.09 441.52
  L 448.18 446.24
  A 0.62 0.61 -42.6 0 0 448.14 447.09
  Q 454.09 453.88 460.68 459.82"
/>
<path stroke="#e98080" vector-effect="non-scaling-stroke" d="
  M 453.06 473.94
  Q 448.22 467.65 442.77 461.90
  C 438.11 456.98 432.83 459.08 428.59 463.32
  C 423.56 468.36 425.27 472.76 429.02 478.21
  Q 432.37 483.08 435.79 487.99
  Q 436.12 488.47 436.60 488.12
  L 442.71 483.62
  Q 443.17 483.27 442.85 482.80
  L 440.40 479.23
  Q 439.99 478.63 440.59 478.23
  L 441.82 477.39
  A 0.53 0.52 -35.4 0 0 441.95 476.64
  L 438.70 472.36
  Q 438.29 471.82 437.73 472.20
  L 436.51 473.00
  Q 436.07 473.29 435.70 472.92
  C 434.16 471.33 431.51 466.81 435.71 466.79
  Q 436.18 466.79 436.47 467.16
  L 446.58 479.96
  Q 446.92 480.39 447.34 480.05
  L 453.43 475.20
  A 0.67 0.67 0.0 0 0 453.56 474.30
  Q 453.38 474.04 453.06 473.94"
/>
<path stroke="#e98080" vector-effect="non-scaling-stroke" d="
  M 413.57 495.17
  L 414.72 494.19
  Q 415.18 493.79 414.90 493.25
  L 412.64 488.85
  A 0.68 0.68 0.0 0 0 411.77 488.52
  L 410.40 489.08
  Q 409.85 489.31 409.49 488.83
  Q 408.08 486.91 408.02 484.55
  A 0.61 0.61 0.0 0 1 408.79 483.94
  C 412.39 484.89 413.40 480.22 414.29 477.71
  A 0.60 0.60 0.0 0 0 413.94 476.95
  C 405.62 473.67 397.79 483.82 401.46 491.55
  Q 404.57 498.12 407.90 504.49
  A 0.61 0.61 0.0 0 0 408.72 504.75
  L 415.50 501.27
  A 0.57 0.57 0.0 0 0 415.75 500.51
  L 413.44 495.84
  Q 413.24 495.45 413.57 495.17"
/>
<path stroke="#e98080" vector-effect="non-scaling-stroke" d="
  M 384.2628 489.0027
  A 0.29 0.29 0.0 0 0 383.8858 488.8412
  L 376.5322 491.7824
  A 0.29 0.29 0.0 0 0 376.3707 492.1594
  L 385.4172 514.7773
  A 0.29 0.29 0.0 0 0 385.7942 514.9388
  L 393.1478 511.9976
  A 0.29 0.29 0.0 0 0 393.3093 511.6206
  L 384.2628 489.0027"
/>
<path stroke="#e98080" vector-effect="non-scaling-stroke" d="
  M 355.72 505.57
  A 2.26 2.26 0.0 0 1 357.38 507.18
  L 361.42 522.14
  Q 361.56 522.66 362.07 522.52
  L 369.66 520.47
  Q 370.20 520.32 370.05 519.78
  Q 368.02 512.64 365.68 505.62
  C 363.06 497.74 355.68 496.53 349.31 500.76
  C 345.30 503.43 344.55 506.38 345.25 511.02
  Q 346.35 518.21 347.98 525.40
  Q 348.09 525.88 348.56 525.77
  L 356.47 524.00
  Q 357.03 523.88 356.87 523.33
  Q 354.81 515.95 353.43 508.53
  C 353.12 506.86 353.63 505.08 355.72 505.57"
/>
<path stroke="#e98080" vector-effect="non-scaling-stroke" d="
  M 321.44 523.56
  L 319.38 523.27
  Q 318.69 523.17 318.64 522.48
  L 317.35 505.70
  Q 317.29 504.92 316.51 504.96
  L 309.70 505.32
  A 0.73 0.73 0.0 0 0 309.01 506.06
  Q 309.10 513.24 309.56 520.52
  C 309.88 525.56 310.93 528.76 316.03 529.90
  C 322.39 531.32 331.11 529.42 331.83 521.95
  C 332.20 518.06 330.55 509.41 329.80 503.98
  A 0.45 0.45 0.0 0 0 329.29 503.59
  L 322.00 504.54
  Q 321.61 504.59 321.64 504.99
  L 323.04 522.05
  A 1.41 1.41 0.0 0 1 321.44 523.56"
/>
<path stroke="#e98080" vector-effect="non-scaling-stroke" d="
  M 283.4120 54.9494
  A 6.20 4.20 -9.1 0 0 276.6257 51.7829
  A 6.20 4.20 -9.1 0 0 271.1680 56.9106
  A 6.20 4.20 -9.1 0 0 277.9543 60.0771
  A 6.20 4.20 -9.1 0 0 283.4120 54.9494"
/>
<path stroke="#808080" vector-effect="non-scaling-stroke" d="
  M 256.90 117.66
  Q 245.08 132.15 244.30 152.50
  C 243.48 173.61 255.78 196.82 278.15 200.90
  C 295.37 204.04 311.43 193.65 320.02 179.35
  Q 320.30 178.89 320.16 178.37
  Q 313.27 152.53 323.48 128.00
  A 1.21 1.19 -46.0 0 0 323.47 127.07
  C 311.08 98.50 276.62 93.49 256.90 117.66"
/>
<path stroke="#808080" vector-effect="non-scaling-stroke" d="
  M 379.2167 217.1682
  A 57.09 47.76 82.1 0 0 418.6767 154.0556
  A 57.09 47.76 82.1 0 0 363.5233 104.0718
  A 57.09 47.76 82.1 0 0 324.0633 167.1844
  A 57.09 47.76 82.1 0 0 379.2167 217.1682"
/>
<path stroke="#a6fead" vector-effect="non-scaling-stroke" d="
  M 259.19 122.19
  Q 254.95 127.50 253.73 133.48
  C 253.03 136.86 251.27 140.88 250.88 144.32
  Q 249.82 153.78 255.23 161.27
  Q 256.61 163.17 257.06 164.41
  Q 257.22 164.84 257.62 165.07
  C 267.08 170.46 276.73 162.23 280.59 153.80
  C 282.73 149.11 283.23 143.40 284.34 138.64
  C 285.62 133.15 285.72 129.99 283.24 124.99
  C 279.81 118.05 273.81 115.04 266.52 117.70
  C 263.36 118.85 261.37 119.45 259.19 122.19"
/>
<path stroke="#a6fead" vector-effect="non-scaling-stroke" d="
  M 343.19 176.06
  Q 348.72 185.96 358.36 185.94
  C 368.98 185.91 375.52 178.26 378.54 168.55
  Q 383.80 151.61 377.26 136.71
  Q 372.11 124.95 360.21 124.05
  C 351.26 123.36 343.27 134.10 341.69 141.90
  C 339.50 152.74 336.91 161.70 342.32 172.73
  Q 342.54 173.18 342.52 173.67
  Q 342.46 174.76 343.19 176.06"
/>
<path stroke="#a6fead" vector-effect="non-scaling-stroke" d="
  M 275.99 139.60
  Q 276.04 135.74 273.45 131.44"
/>
<path stroke="#277f2e" vector-effect="non-scaling-stroke" d="
  M 273.45 131.44
  Q 273.08 127.13 267.80 126.86
  Q 265.53 126.75 263.54 128.26
  C 255.56 134.35 253.43 143.08 256.09 152.75
  C 258.76 162.47 267.33 159.74 271.69 153.43
  Q 275.78 147.51 275.99 139.60"
/>
<path stroke="#808080" vector-effect="non-scaling-stroke" d="
  M 273.45 131.44
  C 263.81 131.87 267.54 144.16 275.99 139.60"
/>
<path stroke="#a6fead" vector-effect="non-scaling-stroke" d="
  M 369.97 151.70
  Q 370.52 145.32 366.14 142.84"
/>
<path stroke="#277f2e" vector-effect="non-scaling-stroke" d="
  M 366.14 142.84
  C 362.80 138.16 356.28 135.40 351.65 139.89
  Q 347.74 143.69 347.01 145.24
  Q 340.68 158.70 346.82 170.93
  C 349.21 175.69 355.62 178.78 360.73 176.05
  C 368.65 171.83 370.46 160.05 369.97 151.70"
/>
<path stroke="#808080" vector-effect="non-scaling-stroke" d="
  M 366.14 142.84
  C 354.26 139.13 357.43 160.23 369.97 151.70"
/>
<path stroke="#e98080" vector-effect="non-scaling-stroke" d="
  M 91.9148 195.7876
  A 6.33 4.24 115.2 0 0 98.4465 191.8653
  A 6.33 4.24 115.2 0 0 97.3052 184.3324
  A 6.33 4.24 115.2 0 0 90.7735 188.2547
  A 6.33 4.24 115.2 0 0 91.9148 195.7876"
/>
<path stroke="#690000" vector-effect="non-scaling-stroke" d="
  M 280.53 226.31
  L 281.02 224.27
  A 0.24 0.24 0.0 0 0 280.61 224.06
  Q 279.59 225.17 279.81 226.67
  Q 279.88 227.16 279.44 227.39
  C 262.64 236.30 251.77 249.62 250.50 268.53
  C 248.79 293.95 267.51 314.20 291.50 318.84
  C 317.65 323.89 345.69 310.27 353.04 283.45
  C 360.81 255.09 340.37 229.08 312.79 223.66
  C 307.77 222.67 301.84 223.23 296.45 223.38
  C 290.97 223.52 286.23 225.20 281.03 226.78
  A 0.40 0.40 0.0 0 1 280.53 226.31"
/>
<path stroke="#e98080" vector-effect="non-scaling-stroke" d="
  M 76.1191 289.6212
  A 6.90 4.21 87.1 0 0 79.9746 282.5170
  A 6.90 4.21 87.1 0 0 75.4209 275.8388
  A 6.90 4.21 87.1 0 0 71.5654 282.9430
  A 6.90 4.21 87.1 0 0 76.1191 289.6212"
/>
<path stroke="#808080" vector-effect="non-scaling-stroke" d="
  M 191.98 297.73
  Q 192.01 299.62 192.52 302.75
  Q 196.42 326.81 201.56 346.83
  C 202.54 350.67 203.84 353.83 205.74 357.04
  A 0.87 0.86 25.0 0 0 207.34 356.46
  C 205.77 347.01 202.59 336.71 201.14 328.79
  Q 198.71 315.60 197.29 302.24
  Q 197.08 300.25 195.55 296.29
  Q 195.31 295.67 194.69 295.92
  L 192.59 296.79
  A 0.99 0.98 -12.1 0 0 191.98 297.73"
/>
<path stroke="#808080" vector-effect="non-scaling-stroke" d="
  M 378.71 336.95
  C 364.60 358.52 346.78 379.89 322.63 391.24
  Q 322.56 391.27 322.44 391.30
  Q 322.16 391.36 322.25 391.72
  Q 322.34 392.11 322.72 391.95
  C 332.93 387.73 343.22 382.95 351.64 375.78
  Q 370.04 360.14 382.43 339.12
  Q 383.94 336.55 385.03 333.56
  A 0.86 0.86 0.0 0 0 384.19 332.41
  C 381.34 332.52 380.44 334.30 378.71 336.95"
/>
</g>
<path fill="#d20000" d="
  M 550.46 330.53
  C 546.24 330.92 540.31 322.95 536.13 318.37
  Q 525.42 306.62 504.34 289.34
  Q 504.70 284.16 503.96 272.76
  Q 500.19 214.23 468.09 167.42
  Q 443.48 131.53 404.59 108.24
  Q 401.99 105.68 397.98 104.94
  Q 398.26 103.67 397.44 103.33
  Q 393.84 101.87 391.39 100.65
  C 388.87 99.41 385.42 98.71 382.63 96.48
  Q 381.38 95.98 380.93 96.48
  Q 380.68 96.04 380.17 95.83
  Q 341.40 80.02 299.55 80.44
  C 294.93 80.49 289.44 81.06 284.35 81.25
  C 281.99 81.34 279.71 82.07 277.25 82.25
  Q 272.63 82.60 271.89 82.72
  C 159.28 100.01 84.78 206.85 103.18 318.06
  C 113.01 377.46 147.83 429.02 199.28 460.06
  C 212.76 468.20 225.84 475.24 240.33 479.62
  Q 244.99 481.03 260.07 485.03
  Q 261.71 486.08 266.51 486.72
  Q 274.95 487.84 283.56 487.84
  A 0.68 0.67 84.7 0 0 284.22 487.04
  Q 283.82 485.04 285.26 485.16
  Q 284.88 487.38 286.23 487.55
  C 288.75 487.85 290.57 488.57 293.24 488.16
  C 297.29 487.54 301.62 488.62 304.95 488.55
  C 365.57 487.32 419.78 461.44 458.44 414.30
  Q 458.77 413.89 458.85 413.38
  Q 459.03 412.12 460.24 411.79
  Q 460.77 411.65 461.10 411.23
  Q 494.02 369.09 502.04 316.29
  L 504.86 315.52
  A 1.02 1.00 56.7 0 1 505.75 315.71
  Q 524.61 330.72 537.29 351.08
  C 539.83 355.16 540.53 360.13 541.88 364.75
  Q 540.60 369.76 537.29 378.29
  Q 515.66 434.00 473.08 474.33
  C 466.82 480.26 460.38 486.04 453.45 490.81
  Q 453.13 491.03 452.93 491.37
  Q 452.74 491.69 452.42 491.90
  C 448.99 494.11 445.34 497.08 442.52 499.00
  Q 410.55 520.81 375.24 531.73
  Q 359.68 536.55 339.45 539.86
  C 338.31 540.05 336.86 539.70 335.61 540.56
  Q 335.18 540.84 334.68 540.88
  L 302.50 543.05
  Q 291.34 544.20 277.24 542.88
  Q 272.32 542.01 267.06 540.87
  Q 262.42 539.87 256.89 538.83
  C 148.59 518.41 65.52 427.78 52.15 319.07
  C 51.60 314.64 50.78 310.42 50.71 304.85
  Q 50.71 304.35 50.39 303.97
  Q 50.29 303.84 50.19 303.72
  Q 50.01 303.46 50.01 303.14
  Q 50.00 286.91 50.00 270.67
  C 50.00 266.63 51.07 261.80 50.69 257.13
  Q 50.64 256.60 50.88 256.11
  Q 52.13 253.55 51.72 250.67
  Q 51.64 250.17 51.91 249.74
  C 52.87 248.22 52.40 246.52 52.61 245.14
  Q 54.30 234.27 55.03 231.50
  C 56.35 226.43 56.99 221.38 58.59 216.40
  C 59.95 212.16 61.05 207.35 62.27 203.59
  C 84.09 136.77 130.85 81.91 194.12 50.97
  Q 202.58 46.84 211.22 43.01
  Q 220.33 38.96 242.89 32.81
  Q 243.36 32.68 245.16 32.66
  C 246.26 32.64 247.24 31.92 248.22 31.72
  C 260.80 29.09 271.82 27.85 282.58 26.41
  Q 285.64 26.00 287.45 26.00
  C 299.20 25.99 312.07 25.07 323.67 26.59
  C 333.00 27.81 342.30 28.75 351.53 30.65
  C 454.54 51.88 535.17 136.77 551.37 241.26
  Q 552.26 247.01 553.13 252.74
  C 555.33 267.31 554.98 282.99 554.74 297.70
  C 554.68 301.43 554.02 305.75 553.97 309.87
  C 553.93 312.47 552.96 315.20 553.30 318.13
  Q 553.36 318.74 553.06 319.27
  Q 551.71 321.58 552.36 324.35
  A 1.07 1.06 56.8 0 1 552.18 325.24
  Q 550.85 327.01 551.34 329.25
  Q 551.46 329.77 551.03 330.10
  L 550.46 330.53
  Z
  M 317.55 49.79
  C 320.01 49.77 325.97 50.14 326.77 52.77
  C 328.47 58.39 321.89 58.30 318.15 58.25
  A 0.71 0.71 0.0 0 0 317.43 58.92
  L 317.18 63.38
  Q 317.16 63.87 317.64 63.94
  Q 326.62 65.39 332.94 61.51
  C 339.80 57.29 336.87 48.09 330.01 45.93
  Q 320.78 43.04 308.77 43.73
  Q 308.33 43.75 308.33 44.19
  L 308.05 63.40
  A 0.60 0.59 0.5 0 0 308.65 64.00
  L 315.42 64.00
  Q 316.09 64.00 316.13 63.33
  L 316.90 50.40
  A 0.66 0.65 1.4 0 1 317.55 49.79
  Z
  M 293.2236 53.5862
  A 16.06 10.12 -8.5 0 0 275.8442 45.9512
  A 16.06 10.12 -8.5 0 0 261.4564 58.3338
  A 16.06 10.12 -8.5 0 0 278.8358 65.9688
  A 16.06 10.12 -8.5 0 0 293.2236 53.5862
  Z
  M 347.58 62.96
  L 349.77 63.28
  A 0.71 0.70 10.4 0 0 350.57 62.74
  L 351.57 58.23
  Q 351.66 57.79 351.23 57.69
  L 349.40 57.28
  A 1.82 1.82 0.0 0 1 349.77 53.69
  Q 351.45 53.67 352.94 54.44
  A 0.81 0.81 0.0 0 1 353.36 55.34
  L 350.48 67.71
  Q 350.33 68.34 350.97 68.49
  L 357.93 70.08
  Q 358.40 70.19 358.54 69.72
  Q 360.31 63.72 361.73 57.63
  C 362.60 53.86 361.77 51.55 358.29 49.97
  C 353.18 47.64 341.48 45.10 340.01 53.25
  Q 338.94 59.20 338.13 65.39
  A 0.75 0.75 0.0 0 0 338.75 66.22
  L 345.51 67.29
  A 0.68 0.67 9.1 0 0 346.28 66.74
  L 346.84 63.49
  A 0.65 0.65 0.0 0 1 347.58 62.96
  Z
  M 239.82 59.86
  C 242.09 58.91 248.95 57.01 250.19 60.32
  C 252.01 65.21 246.41 66.58 243.14 67.82
  Q 242.64 68.01 242.79 68.53
  L 244.06 72.93
  Q 244.23 73.50 244.81 73.37
  C 251.07 71.92 260.95 67.10 259.94 59.44
  C 258.23 46.54 236.06 54.50 229.79 57.07
  A 0.54 0.54 0.0 0 0 229.48 57.74
  L 235.47 75.72
  Q 235.64 76.22 236.14 76.06
  L 242.42 74.02
  A 0.95 0.94 -16.7 0 0 243.04 72.87
  L 239.55 60.42
  A 0.47 0.47 0.0 0 1 239.82 59.86
  Z
  M 390.16 74.61
  C 387.30 74.05 383.64 70.87 385.34 67.64
  C 387.11 64.29 393.71 66.61 396.44 68.14
  A 0.67 0.67 0.0 0 0 397.39 67.81
  L 399.04 63.82
  A 0.61 0.61 0.0 0 0 398.77 63.05
  C 392.37 59.60 384.42 56.99 378.58 60.83
  C 374.70 63.38 374.48 68.09 376.93 71.89
  C 380.46 77.33 389.42 82.85 396.26 80.71
  Q 400.99 79.23 399.51 74.23
  C 398.75 71.63 392.56 69.69 390.35 69.08
  Q 389.78 68.92 389.58 69.48
  L 388.33 72.88
  A 0.71 0.70 18.1 0 0 388.80 73.80
  L 390.25 74.21
  A 0.21 0.20 58.1 0 1 390.16 74.61
  Z
  M 214.09 69.38
  L 216.79 68.39
  A 0.89 0.88 68.5 0 1 217.92 68.89
  L 222.66 80.60
  Q 222.87 81.11 223.38 80.91
  L 229.81 78.46
  Q 230.41 78.22 230.21 77.61
  Q 228.19 71.56 225.85 65.62
  C 222.82 57.92 211.80 63.04 207.71 66.98
  C 202.61 71.89 208.82 80.49 211.32 85.76
  Q 211.56 86.26 212.06 86.02
  L 218.37 82.97
  A 0.65 0.64 -24.7 0 0 218.68 82.14
  L 213.64 70.41
  Q 213.31 69.66 214.09 69.38
  Z
  M 410.14 83.31
  L 417.03 87.06
  A 0.65 0.65 0.0 0 0 417.92 86.80
  L 419.75 83.38
  A 0.55 0.55 0.0 0 0 419.55 82.65
  L 414.07 79.37
  A 0.98 0.98 0.0 0 1 415.06 77.67
  L 421.85 81.51
  A 0.48 0.48 0.0 0 0 422.49 81.34
  L 424.87 77.56
  A 0.76 0.75 -57.8 0 0 424.64 76.52
  C 420.97 74.17 409.30 65.95 405.60 71.62
  C 403.71 74.53 400.13 80.30 401.42 83.84
  C 403.05 88.31 410.32 91.62 414.31 93.94
  A 0.65 0.64 -59.4 0 0 415.19 93.71
  L 417.11 90.49
  A 1.46 1.46 0.0 0 0 416.62 88.49
  L 409.61 84.22
  Q 409.37 84.08 409.47 83.82
  Q 409.52 83.68 409.57 83.53
  Q 409.72 83.08 410.14 83.31
  Z
  M 191.20 84.46
  C 189.06 82.36 190.93 79.29 193.54 80.24
  Q 193.96 80.40 194.17 80.79
  L 199.93 91.37
  A 0.59 0.59 0.0 0 0 200.71 91.62
  L 206.92 88.60
  A 0.55 0.55 0.0 0 0 207.18 87.87
  Q 204.54 82.08 201.54 76.37
  C 196.66 67.10 177.46 79.37 182.64 87.33
  Q 185.99 92.47 189.27 97.77
  Q 189.57 98.26 190.05 97.96
  L 195.84 94.33
  Q 196.41 93.98 196.08 93.39
  L 194.45 90.49
  Q 194.14 89.93 194.71 89.65
  L 196.72 88.65
  A 0.65 0.65 0.0 0 0 196.98 87.73
  L 194.48 83.58
  A 0.60 0.60 0.0 0 0 193.63 83.39
  L 191.92 84.53
  A 0.57 0.57 0.0 0 1 191.20 84.46
  Z
  M 425.19 84.69
  Q 423.06 87.53 418.27 95.82
  Q 418.03 96.24 418.43 96.51
  L 424.91 100.82
  Q 425.37 101.13 425.69 100.67
  L 433.06 89.92
  Q 433.40 89.43 433.89 89.75
  L 436.96 91.71
  A 0.80 0.80 0.0 0 1 437.18 92.84
  L 429.71 103.63
  A 0.56 0.56 0.0 0 0 429.82 104.39
  L 436.21 109.36
  A 0.58 0.57 37.2 0 0 437.03 109.25
  Q 440.48 104.62 444.13 99.87
  Q 447.78 95.11 443.75 90.51
  C 439.98 86.22 430.01 78.23 425.19 84.69
  Z
  M 163.35 98.84
  Q 165.92 96.44 169.26 95.28
  C 173.86 93.68 175.74 98.44 173.05 101.57
  Q 172.28 102.47 169.33 104.98
  A 0.64 0.63 -38.0 0 0 169.22 105.83
  L 171.83 109.63
  Q 172.08 109.99 172.45 109.77
  Q 177.17 106.97 180.19 102.69
  C 183.73 97.69 184.69 90.54 177.92 87.98
  C 170.09 85.01 158.60 94.66 152.67 99.82
  Q 152.35 100.10 152.62 100.42
  L 164.60 114.78
  Q 165.14 115.43 165.82 114.92
  L 170.60 111.29
  A 1.18 1.18 0.0 0 0 170.83 109.64
  L 163.28 99.66
  Q 162.95 99.22 163.35 98.84
  Z
  M 453.36 104.87
  A 0.68 0.68 0.0 0 1 453.43 105.83
  L 444.95 115.84
  A 0.68 0.68 0.0 0 0 445.01 116.78
  L 451.01 122.26
  A 0.68 0.68 0.0 0 0 451.97 122.23
  L 460.82 112.69
  A 0.68 0.68 0.0 0 1 461.80 112.67
  L 466.90 117.78
  A 0.68 0.68 0.0 0 0 467.86 117.77
  L 471.17 114.43
  A 0.68 0.68 0.0 0 0 471.15 113.45
  L 451.66 95.59
  A 0.68 0.68 0.0 0 0 450.64 95.71
  L 448.03 99.51
  A 0.68 0.68 0.0 0 0 448.15 100.41
  L 453.36 104.87
  Z
  M 147.4492 104.5966
  A 0.49 0.49 0.0 0 0 146.7570 104.5640
  L 141.1950 109.6250
  A 0.49 0.49 0.0 0 0 141.1624 110.3172
  L 154.0708 124.5034
  A 0.49 0.49 0.0 0 0 154.7630 124.5360
  L 160.3250 119.4750
  A 0.49 0.49 0.0 0 0 160.3576 118.7828
  L 147.4492 104.5966
  Z
  M 136.80 132.78
  L 127.24 124.40
  A 0.65 0.64 -47.6 0 0 126.35 124.45
  L 121.46 129.69
  A 0.85 0.85 0.0 0 0 121.50 130.89
  Q 125.92 135.05 130.85 138.66
  C 136.20 142.57 141.81 138.45 144.80 133.83
  C 150.46 125.11 142.20 119.85 136.65 114.56
  A 0.62 0.62 0.0 0 0 135.80 114.57
  L 130.27 120.11
  A 0.49 0.48 44.6 0 0 130.28 120.81
  L 139.69 129.59
  A 0.67 0.66 -49.7 0 1 139.76 130.48
  L 138.04 132.67
  A 0.86 0.86 0.0 0 1 136.80 132.78
  Z
  M 477.75 130.28
  Q 478.32 130.42 478.92 131.11
  Q 481.42 133.98 483.94 137.08
  A 0.67 0.67 0.0 0 0 484.90 137.17
  L 488.43 134.19
  Q 488.84 133.85 488.51 133.43
  C 484.66 128.56 475.35 115.36 469.51 120.76
  C 467.25 122.84 462.28 126.74 462.14 129.91
  C 461.95 134.16 470.04 143.10 473.11 146.01
  Q 473.43 146.31 473.77 146.03
  L 476.91 143.41
  A 1.03 1.03 0.0 0 0 477.04 141.96
  L 470.85 134.46
  A 0.34 0.34 0.0 0 1 470.91 133.97
  L 471.11 133.82
  Q 471.53 133.51 471.88 133.91
  L 477.60 140.50
  Q 477.86 140.80 478.17 140.55
  L 481.31 138.01
  A 0.51 0.50 51.6 0 0 481.39 137.31
  L 476.94 131.54
  A 0.79 0.79 0.0 0 1 477.75 130.28
  Z
  M 121.12 153.17
  C 113.84 164.97 106.43 148.60 118.92 145.72
  Q 119.40 145.61 119.70 145.21
  L 124.71 138.44
  A 0.43 0.43 0.0 0 0 124.45 137.76
  C 115.46 135.74 107.71 145.13 105.39 152.56
  C 102.73 161.08 107.82 169.54 117.28 164.43
  C 124.96 160.29 133.94 148.43 127.05 139.71
  Q 126.61 139.15 126.14 139.70
  L 121.02 145.74
  A 0.81 0.80 50.5 0 0 120.94 146.67
  Q 122.97 150.19 121.12 153.17
  Z
  M 87.8213 204.8986
  A 16.28 10.15 114.8 0 0 103.8639 194.3774
  A 16.28 10.15 114.8 0 0 101.4787 175.3414
  A 16.28 10.15 114.8 0 0 85.4361 185.8626
  A 16.28 10.15 114.8 0 0 87.8213 204.8986
  Z
  M 81.71 211.53
  L 83.59 205.73
  A 0.64 0.63 19.8 0 0 83.22 204.95
  L 79.01 203.25
  Q 78.52 203.06 78.34 203.55
  Q 74.25 214.46 71.75 225.83
  Q 71.62 226.40 72.18 226.54
  L 76.61 227.65
  Q 77.17 227.79 77.31 227.23
  L 78.80 221.29
  A 0.75 0.74 15.0 0 1 79.72 220.76
  L 92.49 224.22
  Q 93.10 224.39 93.26 223.77
  L 95.06 217.07
  Q 95.24 216.40 94.58 216.19
  L 82.06 212.21
  Q 81.55 212.05 81.71 211.53
  Z
  M 82.20 239.27
  L 83.54 232.31
  A 0.66 0.65 11.6 0 0 83.04 231.56
  L 79.29 230.72
  A 0.64 0.63 -78.6 0 0 78.53 231.23
  L 77.46 236.93
  A 0.96 0.96 0.0 0 1 75.65 237.18
  Q 75.14 236.17 75.58 234.69
  Q 76.28 232.33 76.73 229.83
  Q 76.85 229.18 76.22 228.99
  L 71.71 227.60
  A 0.57 0.57 0.0 0 0 70.98 228.03
  C 69.80 233.72 65.14 246.19 75.42 247.98
  C 82.26 249.17 86.35 250.70 88.74 242.21
  Q 90.02 237.68 90.73 232.93
  Q 90.82 232.35 90.25 232.19
  L 86.05 231.01
  Q 85.56 230.87 85.41 231.35
  Q 84.06 235.68 83.69 238.47
  Q 83.56 239.48 83.03 239.82
  A 0.54 0.54 0.0 0 1 82.20 239.27
  Z
  M 85.98 265.42
  C 89.52 252.06 74.90 253.66 67.34 252.37
  Q 66.85 252.28 66.81 252.78
  L 66.16 261.06
  Q 66.11 261.62 66.67 261.67
  Q 72.21 262.21 77.75 262.75
  Q 80.32 263.00 80.55 264.83
  Q 80.63 265.42 81.23 265.47
  L 85.42 265.81
  Q 85.86 265.85 85.98 265.42
  Z
  M 76.4849 300.4693
  A 17.62 10.13 88.0 0 0 85.9938 282.5065
  A 17.62 10.13 88.0 0 0 75.2551 265.2507
  A 17.62 10.13 88.0 0 0 65.7462 283.2135
  A 17.62 10.13 88.0 0 0 76.4849 300.4693
  Z
  M 78.66 306.45
  C 77.76 304.37 75.65 302.34 73.25 302.68
  C 65.26 303.81 69.99 323.41 71.51 329.68
  Q 71.63 330.18 72.14 330.08
  L 90.50 326.20
  A 0.63 0.62 79.8 0 0 90.99 325.49
  L 89.66 317.57
  Q 89.57 317.02 89.02 317.09
  L 75.72 318.95
  Q 75.15 319.03 75.09 318.47
  L 74.47 313.21
  A 0.74 0.73 -57.2 0 1 75.90 312.90
  L 77.25 317.11
  Q 77.35 317.43 77.68 317.44
  C 82.57 317.67 84.82 314.96 88.17 311.03
  Q 88.50 310.63 88.42 310.12
  L 86.98 301.51
  A 0.44 0.44 0.0 0 0 86.26 301.25
  L 79.70 306.70
  A 0.67 0.67 0.0 0 1 78.66 306.45
  Z
  M 82.41 344.67
  L 83.46 346.56
  A 0.64 0.63 -22.1 0 0 84.18 346.86
  L 88.29 345.70
  Q 88.77 345.56 88.69 345.07
  C 87.97 340.84 84.11 330.58 78.55 333.29
  C 70.55 337.18 78.19 362.19 87.58 359.62
  Q 92.70 358.22 99.39 355.37
  Q 99.79 355.20 99.66 354.77
  L 96.87 346.22
  Q 96.71 345.72 96.22 345.88
  L 83.91 349.73
  Q 83.14 349.97 82.89 349.20
  L 81.58 345.03
  A 0.46 0.45 -68.3 0 1 82.41 344.67
  Z
  M 517.84 368.06
  A 0.83 0.83 0.0 0 1 519.16 368.96
  C 514.63 382.80 500.64 370.83 509.35 363.09
  A 0.44 0.44 0.0 0 0 509.18 362.33
  L 502.75 360.49
  Q 502.21 360.33 502.01 360.86
  Q 499.75 366.62 499.57 368.57
  C 497.57 389.31 525.60 388.13 525.56 368.25
  C 525.54 362.02 519.97 357.04 514.03 360.89
  Q 513.62 361.15 513.46 361.61
  L 511.02 368.55
  Q 510.79 369.20 511.44 369.42
  L 515.61 370.82
  A 1.05 1.04 10.2 0 0 516.99 369.87
  Q 517.02 368.75 517.84 368.06
  Z
  M 480.89 418.62
  Q 487.85 423.81 495.17 428.54
  Q 495.62 428.83 495.92 428.38
  L 500.18 422.05
  A 0.65 0.63 33.7 0 0 499.99 421.16
  L 486.22 412.10
  A 1.09 1.08 70.5 0 1 487.14 410.16
  C 491.28 411.49 497.42 416.26 501.23 418.67
  A 0.86 0.85 31.9 0 0 502.42 418.40
  L 506.25 412.08
  Q 506.69 411.34 505.95 410.92
  L 491.62 402.66
  A 1.00 0.99 -24.8 0 1 492.30 400.82
  C 496.50 401.56 503.49 406.39 507.38 408.71
  Q 507.97 409.06 508.28 408.46
  L 511.91 401.45
  Q 512.20 400.91 511.65 400.63
  Q 504.60 397.00 497.57 393.40
  C 490.08 389.56 483.97 395.89 485.47 403.36
  Q 485.58 403.90 485.06 404.06
  C 478.74 405.97 474.89 414.13 480.89 418.62
  Z
  M 480.4116 434.6529
  A 0.61 0.61 0.0 0 0 480.3214 433.7950
  L 477.3994 431.4287
  A 0.61 0.61 0.0 0 0 476.5414 431.5189
  L 471.3684 437.9071
  A 0.61 0.61 0.0 0 0 471.4586 438.7650
  L 474.3806 441.1313
  A 0.61 0.61 0.0 0 0 475.2386 441.0411
  L 480.4116 434.6529
  Z
  M 460.68 459.82
  C 464.92 463.64 471.02 459.74 473.51 455.73
  Q 473.73 455.38 473.43 455.10
  L 468.92 450.96
  A 0.41 0.40 -45.5 0 0 468.36 450.97
  L 466.52 452.71
  Q 465.94 453.26 465.36 452.70
  L 453.79 441.52
  Q 453.44 441.18 453.09 441.52
  L 448.18 446.24
  A 0.62 0.61 -42.6 0 0 448.14 447.09
  Q 454.09 453.88 460.68 459.82
  Z
  M 453.06 473.94
  Q 448.22 467.65 442.77 461.90
  C 438.11 456.98 432.83 459.08 428.59 463.32
  C 423.56 468.36 425.27 472.76 429.02 478.21
  Q 432.37 483.08 435.79 487.99
  Q 436.12 488.47 436.60 488.12
  L 442.71 483.62
  Q 443.17 483.27 442.85 482.80
  L 440.40 479.23
  Q 439.99 478.63 440.59 478.23
  L 441.82 477.39
  A 0.53 0.52 -35.4 0 0 441.95 476.64
  L 438.70 472.36
  Q 438.29 471.82 437.73 472.20
  L 436.51 473.00
  Q 436.07 473.29 435.70 472.92
  C 434.16 471.33 431.51 466.81 435.71 466.79
  Q 436.18 466.79 436.47 467.16
  L 446.58 479.96
  Q 446.92 480.39 447.34 480.05
  L 453.43 475.20
  A 0.67 0.67 0.0 0 0 453.56 474.30
  Q 453.38 474.04 453.06 473.94
  Z
  M 413.57 495.17
  L 414.72 494.19
  Q 415.18 493.79 414.90 493.25
  L 412.64 488.85
  A 0.68 0.68 0.0 0 0 411.77 488.52
  L 410.40 489.08
  Q 409.85 489.31 409.49 488.83
  Q 408.08 486.91 408.02 484.55
  A 0.61 0.61 0.0 0 1 408.79 483.94
  C 412.39 484.89 413.40 480.22 414.29 477.71
  A 0.60 0.60 0.0 0 0 413.94 476.95
  C 405.62 473.67 397.79 483.82 401.46 491.55
  Q 404.57 498.12 407.90 504.49
  A 0.61 0.61 0.0 0 0 408.72 504.75
  L 415.50 501.27
  A 0.57 0.57 0.0 0 0 415.75 500.51
  L 413.44 495.84
  Q 413.24 495.45 413.57 495.17
  Z
  M 384.2628 489.0027
  A 0.29 0.29 0.0 0 0 383.8858 488.8412
  L 376.5322 491.7824
  A 0.29 0.29 0.0 0 0 376.3707 492.1594
  L 385.4172 514.7773
  A 0.29 0.29 0.0 0 0 385.7942 514.9388
  L 393.1478 511.9976
  A 0.29 0.29 0.0 0 0 393.3093 511.6206
  L 384.2628 489.0027
  Z
  M 355.72 505.57
  A 2.26 2.26 0.0 0 1 357.38 507.18
  L 361.42 522.14
  Q 361.56 522.66 362.07 522.52
  L 369.66 520.47
  Q 370.20 520.32 370.05 519.78
  Q 368.02 512.64 365.68 505.62
  C 363.06 497.74 355.68 496.53 349.31 500.76
  C 345.30 503.43 344.55 506.38 345.25 511.02
  Q 346.35 518.21 347.98 525.40
  Q 348.09 525.88 348.56 525.77
  L 356.47 524.00
  Q 357.03 523.88 356.87 523.33
  Q 354.81 515.95 353.43 508.53
  C 353.12 506.86 353.63 505.08 355.72 505.57
  Z
  M 321.44 523.56
  L 319.38 523.27
  Q 318.69 523.17 318.64 522.48
  L 317.35 505.70
  Q 317.29 504.92 316.51 504.96
  L 309.70 505.32
  A 0.73 0.73 0.0 0 0 309.01 506.06
  Q 309.10 513.24 309.56 520.52
  C 309.88 525.56 310.93 528.76 316.03 529.90
  C 322.39 531.32 331.11 529.42 331.83 521.95
  C 332.20 518.06 330.55 509.41 329.80 503.98
  A 0.45 0.45 0.0 0 0 329.29 503.59
  L 322.00 504.54
  Q 321.61 504.59 321.64 504.99
  L 323.04 522.05
  A 1.41 1.41 0.0 0 1 321.44 523.56
  Z"
/>
<path fill="#ffffff" d="
  M 316.90 50.40
  L 316.13 63.33
  Q 316.09 64.00 315.42 64.00
  L 308.65 64.00
  A 0.60 0.59 0.5 0 1 308.05 63.40
  L 308.33 44.19
  Q 308.33 43.75 308.77 43.73
  Q 320.78 43.04 330.01 45.93
  C 336.87 48.09 339.80 57.29 332.94 61.51
  Q 326.62 65.39 317.64 63.94
  Q 317.16 63.87 317.18 63.38
  L 317.43 58.92
  A 0.71 0.71 0.0 0 1 318.15 58.25
  C 321.89 58.30 328.47 58.39 326.77 52.77
  C 325.97 50.14 320.01 49.77 317.55 49.79
  A 0.66 0.65 1.4 0 0 316.90 50.40
  Z"
/>
<path fill="#ffffff" d="
  M 293.2236 53.5862
  A 16.06 10.12 -8.5 0 1 278.8358 65.9688
  A 16.06 10.12 -8.5 0 1 261.4564 58.3338
  A 16.06 10.12 -8.5 0 1 275.8442 45.9512
  A 16.06 10.12 -8.5 0 1 293.2236 53.5862
  Z
  M 283.4120 54.9494
  A 6.20 4.20 -9.1 0 0 276.6257 51.7829
  A 6.20 4.20 -9.1 0 0 271.1680 56.9106
  A 6.20 4.20 -9.1 0 0 277.9543 60.0771
  A 6.20 4.20 -9.1 0 0 283.4120 54.9494
  Z"
/>
<path fill="#ffffff" d="
  M 346.84 63.49
  L 346.28 66.74
  A 0.68 0.67 9.1 0 1 345.51 67.29
  L 338.75 66.22
  A 0.75 0.75 0.0 0 1 338.13 65.39
  Q 338.94 59.20 340.01 53.25
  C 341.48 45.10 353.18 47.64 358.29 49.97
  C 361.77 51.55 362.60 53.86 361.73 57.63
  Q 360.31 63.72 358.54 69.72
  Q 358.40 70.19 357.93 70.08
  L 350.97 68.49
  Q 350.33 68.34 350.48 67.71
  L 353.36 55.34
  A 0.81 0.81 0.0 0 0 352.94 54.44
  Q 351.45 53.67 349.77 53.69
  A 1.82 1.82 0.0 0 0 349.40 57.28
  L 351.23 57.69
  Q 351.66 57.79 351.57 58.23
  L 350.57 62.74
  A 0.71 0.70 10.4 0 1 349.77 63.28
  L 347.58 62.96
  A 0.65 0.65 0.0 0 0 346.84 63.49
  Z"
/>
<ellipse fill="#d20000" cx="0.00" cy="0.00" transform="translate(277.29,55.93) rotate(-9.1)" rx="6.20" ry="4.20"/>
<path fill="#ffffff" d="
  M 250.19 60.32
  C 248.95 57.01 242.09 58.91 239.82 59.86
  A 0.47 0.47 0.0 0 0 239.55 60.42
  L 243.04 72.87
  A 0.95 0.94 -16.7 0 1 242.42 74.02
  L 236.14 76.06
  Q 235.64 76.22 235.47 75.72
  L 229.48 57.74
  A 0.54 0.54 0.0 0 1 229.79 57.07
  C 236.06 54.50 258.23 46.54 259.94 59.44
  C 260.95 67.10 251.07 71.92 244.81 73.37
  Q 244.23 73.50 244.06 72.93
  L 242.79 68.53
  Q 242.64 68.01 243.14 67.82
  C 246.41 66.58 252.01 65.21 250.19 60.32
  Z"
/>
<path fill="#ffffff" d="
  M 390.25 74.21
  L 388.80 73.80
  A 0.71 0.70 18.1 0 1 388.33 72.88
  L 389.58 69.48
  Q 389.78 68.92 390.35 69.08
  C 392.56 69.69 398.75 71.63 399.51 74.23
  Q 400.99 79.23 396.26 80.71
  C 389.42 82.85 380.46 77.33 376.93 71.89
  C 374.48 68.09 374.70 63.38 378.58 60.83
  C 384.42 56.99 392.37 59.60 398.77 63.05
  A 0.61 0.61 0.0 0 1 399.04 63.82
  L 397.39 67.81
  A 0.67 0.67 0.0 0 1 396.44 68.14
  C 393.71 66.61 387.11 64.29 385.34 67.64
  C 383.64 70.87 387.30 74.05 390.16 74.61
  A 0.21 0.20 58.1 0 0 390.25 74.21
  Z"
/>
<path fill="#ffffff" d="
  M 213.64 70.41
  L 218.68 82.14
  A 0.65 0.64 -24.7 0 1 218.37 82.97
  L 212.06 86.02
  Q 211.56 86.26 211.32 85.76
  C 208.82 80.49 202.61 71.89 207.71 66.98
  C 211.80 63.04 222.82 57.92 225.85 65.62
  Q 228.19 71.56 230.21 77.61
  Q 230.41 78.22 229.81 78.46
  L 223.38 80.91
  Q 222.87 81.11 222.66 80.60
  L 217.92 68.89
  A 0.89 0.88 68.5 0 0 216.79 68.39
  L 214.09 69.38
  Q 213.31 69.66 213.64 70.41
  Z"
/>
<path fill="#ffffff" d="
  M 409.57 83.53
  Q 409.52 83.68 409.47 83.82
  Q 409.37 84.08 409.61 84.22
  L 416.62 88.49
  A 1.46 1.46 0.0 0 1 417.11 90.49
  L 415.19 93.71
  A 0.65 0.64 -59.4 0 1 414.31 93.94
  C 410.32 91.62 403.05 88.31 401.42 83.84
  C 400.13 80.30 403.71 74.53 405.60 71.62
  C 409.30 65.95 420.97 74.17 424.64 76.52
  A 0.76 0.75 -57.8 0 1 424.87 77.56
  L 422.49 81.34
  A 0.48 0.48 0.0 0 1 421.85 81.51
  L 415.06 77.67
  A 0.98 0.98 0.0 0 0 414.07 79.37
  L 419.55 82.65
  A 0.55 0.55 0.0 0 1 419.75 83.38
  L 417.92 86.80
  A 0.65 0.65 0.0 0 1 417.03 87.06
  L 410.14 83.31
  Q 409.72 83.08 409.57 83.53
  Z"
/>
<path fill="#ffffff" d="
  M 193.54 80.24
  C 190.93 79.29 189.06 82.36 191.20 84.46
  A 0.57 0.57 0.0 0 0 191.92 84.53
  L 193.63 83.39
  A 0.60 0.60 0.0 0 1 194.48 83.58
  L 196.98 87.73
  A 0.65 0.65 0.0 0 1 196.72 88.65
  L 194.71 89.65
  Q 194.14 89.93 194.45 90.49
  L 196.08 93.39
  Q 196.41 93.98 195.84 94.33
  L 190.05 97.96
  Q 189.57 98.26 189.27 97.77
  Q 185.99 92.47 182.64 87.33
  C 177.46 79.37 196.66 67.10 201.54 76.37
  Q 204.54 82.08 207.18 87.87
  A 0.55 0.55 0.0 0 1 206.92 88.60
  L 200.71 91.62
  A 0.59 0.59 0.0 0 1 199.93 91.37
  L 194.17 80.79
  Q 193.96 80.40 193.54 80.24
  Z"
/>
<path fill="#ffffff" d="
  M 425.19 84.69
  C 430.01 78.23 439.98 86.22 443.75 90.51
  Q 447.78 95.11 444.13 99.87
  Q 440.48 104.62 437.03 109.25
  A 0.58 0.57 37.2 0 1 436.21 109.36
  L 429.82 104.39
  A 0.56 0.56 0.0 0 1 429.71 103.63
  L 437.18 92.84
  A 0.80 0.80 0.0 0 0 436.96 91.71
  L 433.89 89.75
  Q 433.40 89.43 433.06 89.92
  L 425.69 100.67
  Q 425.37 101.13 424.91 100.82
  L 418.43 96.51
  Q 418.03 96.24 418.27 95.82
  Q 423.06 87.53 425.19 84.69
  Z"
/>
<path fill="#ffffff" d="
  M 163.28 99.66
  L 170.83 109.64
  A 1.18 1.18 0.0 0 1 170.60 111.29
  L 165.82 114.92
  Q 165.14 115.43 164.60 114.78
  L 152.62 100.42
  Q 152.35 100.10 152.67 99.82
  C 158.60 94.66 170.09 85.01 177.92 87.98
  C 184.69 90.54 183.73 97.69 180.19 102.69
  Q 177.17 106.97 172.45 109.77
  Q 172.08 109.99 171.83 109.63
  L 169.22 105.83
  A 0.64 0.63 -38.0 0 1 169.33 104.98
  Q 172.28 102.47 173.05 101.57
  C 175.74 98.44 173.86 93.68 169.26 95.28
  Q 165.92 96.44 163.35 98.84
  Q 162.95 99.22 163.28 99.66
  Z"
/>
<path fill="#ffffff" d="
  M 453.36 104.87
  L 448.15 100.41
  A 0.68 0.68 0.0 0 1 448.03 99.51
  L 450.64 95.71
  A 0.68 0.68 0.0 0 1 451.66 95.59
  L 471.15 113.45
  A 0.68 0.68 0.0 0 1 471.17 114.43
  L 467.86 117.77
  A 0.68 0.68 0.0 0 1 466.90 117.78
  L 461.80 112.67
  A 0.68 0.68 0.0 0 0 460.82 112.69
  L 451.97 122.23
  A 0.68 0.68 0.0 0 1 451.01 122.26
  L 445.01 116.78
  A 0.68 0.68 0.0 0 1 444.95 115.84
  L 453.43 105.83
  A 0.68 0.68 0.0 0 0 453.36 104.87
  Z"
/>
<path fill="#000000" d="
  M 380.52 97.96
  Q 380.31 98.73 381.97 98.36
  Q 382.79 98.18 382.63 96.48
  C 385.42 98.71 388.87 99.41 391.39 100.65
  Q 393.84 101.87 397.44 103.33
  Q 398.26 103.67 397.98 104.94
  Q 397.11 105.54 397.41 105.84
  Q 399.44 107.89 402.06 109.55
  Q 417.74 123.90 422.82 145.04
  Q 424.25 150.99 425.40 156.14
  Q 424.47 159.79 425.34 161.65
  L 425.56 164.31
  Q 424.74 167.62 425.37 170.64
  Q 423.36 188.92 413.06 203.54
  C 403.98 216.42 387.59 226.01 371.19 224.56
  C 348.64 222.55 331.14 206.66 323.07 186.02
  A 0.87 0.87 0.0 0 0 321.54 185.84
  C 297.48 220.30 251.84 210.10 241.74 170.74
  Q 236.56 150.52 243.21 131.13
  Q 246.16 125.93 249.71 119.70
  Q 250.15 118.92 249.52 118.75
  Q 252.27 115.61 254.73 112.23
  C 256.25 110.17 260.69 108.47 262.88 106.69
  C 266.07 104.10 268.84 101.10 272.55 99.54
  C 289.54 92.42 309.71 98.33 320.42 112.34
  Q 321.85 114.22 326.39 121.21
  Q 326.73 121.73 327.08 121.22
  C 339.74 102.64 357.35 92.71 380.52 97.96
  Z
  M 256.90 117.66
  Q 245.08 132.15 244.30 152.50
  C 243.48 173.61 255.78 196.82 278.15 200.90
  C 295.37 204.04 311.43 193.65 320.02 179.35
  Q 320.30 178.89 320.16 178.37
  Q 313.27 152.53 323.48 128.00
  A 1.21 1.19 -46.0 0 0 323.47 127.07
  C 311.08 98.50 276.62 93.49 256.90 117.66
  Z
  M 379.2167 217.1682
  A 57.09 47.76 82.1 0 0 418.6767 154.0556
  A 57.09 47.76 82.1 0 0 363.5233 104.0718
  A 57.09 47.76 82.1 0 0 324.0633 167.1844
  A 57.09 47.76 82.1 0 0 379.2167 217.1682
  Z"
/>
<path fill="#ffffff" d="
  M 382.63 96.48
  Q 382.79 98.18 381.97 98.36
  Q 380.31 98.73 380.52 97.96
  Q 381.24 97.86 380.93 96.48
  Q 381.38 95.98 382.63 96.48
  Z"
/>
<path fill="#ffffff" d="
  M 256.90 117.66
  C 276.62 93.49 311.08 98.50 323.47 127.07
  A 1.21 1.19 -46.0 0 1 323.48 128.00
  Q 313.27 152.53 320.16 178.37
  Q 320.30 178.89 320.02 179.35
  C 311.43 193.65 295.37 204.04 278.15 200.90
  C 255.78 196.82 243.48 173.61 244.30 152.50
  Q 245.08 132.15 256.90 117.66
  Z
  M 259.19 122.19
  Q 254.95 127.50 253.73 133.48
  C 253.03 136.86 251.27 140.88 250.88 144.32
  Q 249.82 153.78 255.23 161.27
  Q 256.61 163.17 257.06 164.41
  Q 257.22 164.84 257.62 165.07
  C 267.08 170.46 276.73 162.23 280.59 153.80
  C 282.73 149.11 283.23 143.40 284.34 138.64
  C 285.62 133.15 285.72 129.99 283.24 124.99
  C 279.81 118.05 273.81 115.04 266.52 117.70
  C 263.36 118.85 261.37 119.45 259.19 122.19
  Z"
/>
<path fill="#ffffff" d="
  M 379.2167 217.1682
  A 57.09 47.76 82.1 0 1 324.0633 167.1844
  A 57.09 47.76 82.1 0 1 363.5233 104.0718
  A 57.09 47.76 82.1 0 1 418.6767 154.0556
  A 57.09 47.76 82.1 0 1 379.2167 217.1682
  Z
  M 343.19 176.06
  Q 348.72 185.96 358.36 185.94
  C 368.98 185.91 375.52 178.26 378.54 168.55
  Q 383.80 151.61 377.26 136.71
  Q 372.11 124.95 360.21 124.05
  C 351.26 123.36 343.27 134.10 341.69 141.90
  C 339.50 152.74 336.91 161.70 342.32 172.73
  Q 342.54 173.18 342.52 173.67
  Q 342.46 174.76 343.19 176.06
  Z"
/>
<rect fill="#ffffff" x="-4.25" y="-10.08" transform="translate(150.76,114.55) rotate(-42.3)" width="8.50" height="20.16" rx="0.49"/>
<path fill="#ffffff" d="
  M 397.98 104.94
  Q 401.99 105.68 404.59 108.24
  L 402.78 108.00
  Q 402.22 107.92 402.03 108.46
  Q 401.89 108.88 402.06 109.55
  Q 399.44 107.89 397.41 105.84
  Q 397.11 105.54 397.98 104.94
  Z"
/>
<path fill="#ffffff" d="
  M 138.04 132.67
  L 139.76 130.48
  A 0.67 0.66 -49.7 0 0 139.69 129.59
  L 130.28 120.81
  A 0.49 0.48 44.6 0 1 130.27 120.11
  L 135.80 114.57
  A 0.62 0.62 0.0 0 1 136.65 114.56
  C 142.20 119.85 150.46 125.11 144.80 133.83
  C 141.81 138.45 136.20 142.57 130.85 138.66
  Q 125.92 135.05 121.50 130.89
  A 0.85 0.85 0.0 0 1 121.46 129.69
  L 126.35 124.45
  A 0.65 0.64 -47.6 0 1 127.24 124.40
  L 136.80 132.78
  A 0.86 0.86 0.0 0 0 138.04 132.67
  Z"
/>
<path fill="#4dfd5b" d="
  M 259.19 122.19
  C 261.37 119.45 263.36 118.85 266.52 117.70
  C 273.81 115.04 279.81 118.05 283.24 124.99
  C 285.72 129.99 285.62 133.15 284.34 138.64
  C 283.23 143.40 282.73 149.11 280.59 153.80
  C 276.73 162.23 267.08 170.46 257.62 165.07
  Q 257.22 164.84 257.06 164.41
  Q 256.61 163.17 255.23 161.27
  Q 249.82 153.78 250.88 144.32
  C 251.27 140.88 253.03 136.86 253.73 133.48
  Q 254.95 127.50 259.19 122.19
  Z
  M 275.99 139.60
  Q 276.04 135.74 273.45 131.44
  Q 273.08 127.13 267.80 126.86
  Q 265.53 126.75 263.54 128.26
  C 255.56 134.35 253.43 143.08 256.09 152.75
  C 258.76 162.47 267.33 159.74 271.69 153.43
  Q 275.78 147.51 275.99 139.60
  Z"
/>
<path fill="#868685" d="
  M 249.52 118.75
  Q 250.15 118.92 249.71 119.70
  Q 246.16 125.93 243.21 131.13
  C 225.13 133.33 217.37 155.00 215.36 170.26
  C 212.37 192.91 209.04 215.91 208.12 238.74
  Q 207.39 256.98 206.70 275.21
  C 206.60 278.01 207.72 280.29 206.67 283.93
  Q 205.87 286.71 207.04 290.93
  L 199.80 289.78
  A 1.08 1.07 31.2 0 0 198.97 289.98
  L 197.09 291.40
  Q 198.08 290.32 198.07 289.00
  Q 197.84 260.11 196.92 213.28
  A 0.44 0.41 21.5 0 0 196.77 212.96
  L 195.79 212.12
  Q 195.37 211.76 195.40 211.21
  Q 196.43 187.52 200.83 164.22
  Q 201.00 164.76 201.52 164.78
  A 0.73 0.72 -79.8 0 0 202.23 164.28
  C 204.87 156.12 208.08 147.84 212.96 140.73
  Q 215.05 137.69 217.00 134.42
  Q 218.64 131.48 219.73 132.22
  L 226.10 128.19
  Q 226.48 127.96 226.18 127.62
  Q 225.95 127.36 225.78 127.46
  L 229.93 125.17
  Q 229.93 125.41 229.98 125.60
  Q 230.10 126.11 230.55 125.84
  C 235.77 122.77 241.20 120.87 247.31 121.01
  A 0.91 0.91 0.0 0 0 247.55 119.22
  Q 247.51 119.21 246.98 119.24
  Q 247.77 118.51 249.52 118.75
  Z"
/>
<path fill="#ffffff" d="
  M 246.98 119.24
  Q 247.51 119.21 247.55 119.22
  A 0.91 0.91 0.0 0 1 247.31 121.01
  C 241.20 120.87 235.77 122.77 230.55 125.84
  Q 230.10 126.11 229.98 125.60
  Q 229.93 125.41 229.93 125.17
  L 238.51 121.46
  Q 239.64 121.45 241.24 120.62
  Q 241.67 120.61 242.16 120.08
  Q 242.51 119.70 243.04 119.74
  Q 245.17 119.91 246.98 119.24
  Z"
/>
<path fill="#ffffff" d="
  M 477.75 130.28
  A 0.79 0.79 0.0 0 0 476.94 131.54
  L 481.39 137.31
  A 0.51 0.50 51.6 0 1 481.31 138.01
  L 478.17 140.55
  Q 477.86 140.80 477.60 140.50
  L 471.88 133.91
  Q 471.53 133.51 471.11 133.82
  L 470.91 133.97
  A 0.34 0.34 0.0 0 0 470.85 134.46
  L 477.04 141.96
  A 1.03 1.03 0.0 0 1 476.91 143.41
  L 473.77 146.03
  Q 473.43 146.31 473.11 146.01
  C 470.04 143.10 461.95 134.16 462.14 129.91
  C 462.28 126.74 467.25 122.84 469.51 120.76
  C 475.35 115.36 484.66 128.56 488.51 133.43
  Q 488.84 133.85 488.43 134.19
  L 484.90 137.17
  A 0.67 0.67 0.0 0 1 483.94 137.08
  Q 481.42 133.98 478.92 131.11
  Q 478.32 130.42 477.75 130.28
  Z"
/>
<path fill="#000000" d="
  M 241.24 120.62
  Q 239.64 121.45 238.51 121.46
  Q 239.82 120.05 241.24 120.62
  Z"
/>
<path fill="#4dfd5b" d="
  M 343.19 176.06
  Q 342.46 174.76 342.52 173.67
  Q 342.54 173.18 342.32 172.73
  C 336.91 161.70 339.50 152.74 341.69 141.90
  C 343.27 134.10 351.26 123.36 360.21 124.05
  Q 372.11 124.95 377.26 136.71
  Q 383.80 151.61 378.54 168.55
  C 375.52 178.26 368.98 185.91 358.36 185.94
  Q 348.72 185.96 343.19 176.06
  Z
  M 369.97 151.70
  Q 370.52 145.32 366.14 142.84
  C 362.80 138.16 356.28 135.40 351.65 139.89
  Q 347.74 143.69 347.01 145.24
  Q 340.68 158.70 346.82 170.93
  C 349.21 175.69 355.62 178.78 360.73 176.05
  C 368.65 171.83 370.46 160.05 369.97 151.70
  Z"
/>
<path fill="#000000" d="
  M 273.45 131.44
  C 263.81 131.87 267.54 144.16 275.99 139.60
  Q 275.78 147.51 271.69 153.43
  C 267.33 159.74 258.76 162.47 256.09 152.75
  C 253.43 143.08 255.56 134.35 263.54 128.26
  Q 265.53 126.75 267.80 126.86
  Q 273.08 127.13 273.45 131.44
  Z"
/>
<path fill="#ffffff" d="
  M 225.78 127.46
  Q 225.95 127.36 226.18 127.62
  Q 226.48 127.96 226.10 128.19
  L 219.73 132.22
  Q 222.29 129.13 225.78 127.46
  Z"
/>
<path fill="#ffffff" d="
  M 273.45 131.44
  Q 276.04 135.74 275.99 139.60
  C 267.54 144.16 263.81 131.87 273.45 131.44
  Z"
/>
<path fill="#ffffff" d="
  M 217.00 134.42
  Q 215.05 137.69 212.96 140.73
  C 208.08 147.84 204.87 156.12 202.23 164.28
  A 0.73 0.72 -79.8 0 1 201.52 164.78
  Q 201.00 164.76 200.83 164.22
  L 202.07 159.85
  Q 203.42 158.37 203.45 155.99
  Q 207.49 143.66 217.00 134.42
  Z"
/>
<path fill="#ffffff" d="
  M 118.92 145.72
  C 106.43 148.60 113.84 164.97 121.12 153.17
  Q 122.97 150.19 120.94 146.67
  A 0.81 0.80 50.5 0 1 121.02 145.74
  L 126.14 139.70
  Q 126.61 139.15 127.05 139.71
  C 133.94 148.43 124.96 160.29 117.28 164.43
  C 107.82 169.54 102.73 161.08 105.39 152.56
  C 107.71 145.13 115.46 135.74 124.45 137.76
  A 0.43 0.43 0.0 0 1 124.71 138.44
  L 119.70 145.21
  Q 119.40 145.61 118.92 145.72
  Z"
/>
<path fill="#000000" d="
  M 366.14 142.84
  C 354.26 139.13 357.43 160.23 369.97 151.70
  C 370.46 160.05 368.65 171.83 360.73 176.05
  C 355.62 178.78 349.21 175.69 346.82 170.93
  Q 340.68 158.70 347.01 145.24
  Q 347.74 143.69 351.65 139.89
  C 356.28 135.40 362.80 138.16 366.14 142.84
  Z"
/>
<path fill="#ffffff" d="
  M 366.14 142.84
  Q 370.52 145.32 369.97 151.70
  C 357.43 160.23 354.26 139.13 366.14 142.84
  Z"
/>
<path fill="#868685" d="
  M 203.45 155.99
  Q 203.42 158.37 202.07 159.85
  Q 202.32 157.62 203.45 155.99
  Z"
/>
<path fill="#868685" d="
  M 425.40 156.14
  Q 437.61 164.00 443.48 174.75
  C 452.46 191.18 449.12 206.25 442.21 222.52
  Q 435.72 237.81 429.41 253.17
  Q 426.59 260.02 428.31 264.15
  Q 427.44 268.86 424.17 274.24
  Q 420.79 274.22 420.06 275.81
  Q 407.26 303.64 392.53 330.59
  L 386.71 328.08
  L 405.77 288.65
  Q 405.80 288.60 405.74 288.58
  Q 405.62 288.54 405.48 288.49
  Q 405.21 288.38 405.08 288.64
  L 385.75 327.72
  L 381.92 326.11
  C 389.21 314.12 394.81 299.21 399.56 289.56
  C 401.59 285.42 405.92 276.84 405.80 272.84
  Q 405.73 270.61 404.02 271.56
  Q 405.55 265.40 408.62 260.67
  L 411.96 260.41
  A 0.92 0.92 0.0 0 0 412.72 259.89
  Q 419.67 244.93 425.95 229.70
  C 428.20 224.22 431.22 217.93 432.81 211.46
  C 434.92 202.86 434.33 192.50 434.33 183.32
  Q 434.33 182.82 433.95 182.49
  Q 433.71 182.28 433.44 182.04
  Q 433.20 181.81 433.09 181.48
  Q 431.29 175.96 427.43 170.54
  Q 426.65 169.45 425.37 170.64
  Q 424.74 167.62 425.56 164.31
  C 434.20 168.87 439.20 180.86 440.49 189.95
  C 441.07 194.02 440.50 198.75 440.25 203.10
  A 0.15 0.15 0.0 0 0 440.55 203.16
  C 445.46 187.83 439.45 169.64 425.34 161.65
  Q 424.47 159.79 425.40 156.14
  Z"
/>
<path fill="#ffffff" d="
  M 425.34 161.65
  C 439.45 169.64 445.46 187.83 440.55 203.16
  A 0.15 0.15 0.0 0 1 440.25 203.10
  C 440.50 198.75 441.07 194.02 440.49 189.95
  C 439.20 180.86 434.20 168.87 425.56 164.31
  L 425.34 161.65
  Z"
/>
<path fill="#ffffff" d="
  M 87.8213 204.8986
  A 16.28 10.15 114.8 0 1 85.4361 185.8626
  A 16.28 10.15 114.8 0 1 101.4787 175.3414
  A 16.28 10.15 114.8 0 1 103.8639 194.3774
  A 16.28 10.15 114.8 0 1 87.8213 204.8986
  Z
  M 91.9148 195.7876
  A 6.33 4.24 115.2 0 0 98.4465 191.8653
  A 6.33 4.24 115.2 0 0 97.3052 184.3324
  A 6.33 4.24 115.2 0 0 90.7735 188.2547
  A 6.33 4.24 115.2 0 0 91.9148 195.7876
  Z"
/>
<ellipse fill="#d20000" cx="0.00" cy="0.00" transform="translate(94.61,190.06) rotate(115.2)" rx="6.33" ry="4.24"/>
<path fill="#ffffff" d="
  M 82.06 212.21
  L 94.58 216.19
  Q 95.24 216.40 95.06 217.07
  L 93.26 223.77
  Q 93.10 224.39 92.49 224.22
  L 79.72 220.76
  A 0.75 0.74 15.0 0 0 78.80 221.29
  L 77.31 227.23
  Q 77.17 227.79 76.61 227.65
  L 72.18 226.54
  Q 71.62 226.40 71.75 225.83
  Q 74.25 214.46 78.34 203.55
  Q 78.52 203.06 79.01 203.25
  L 83.22 204.95
  A 0.64 0.63 19.8 0 1 83.59 205.73
  L 81.71 211.53
  Q 81.55 212.05 82.06 212.21
  Z"
/>
<path fill="#000000" d="
  M 408.62 260.67
  Q 405.55 265.40 404.02 271.56
  Q 398.93 273.64 392.60 273.66
  Q 389.17 273.68 385.93 273.93
  C 380.62 274.34 373.82 273.29 370.12 273.26
  Q 365.46 273.23 360.63 273.21
  A 0.63 0.62 0.5 0 0 360.00 273.82
  C 359.72 294.53 345.16 311.99 327.05 320.05
  C 288.76 337.10 240.24 310.20 244.98 265.06
  C 247.38 242.19 266.57 224.43 288.25 219.25
  Q 316.03 212.62 338.69 229.60
  C 346.35 235.35 351.96 244.44 356.65 252.61
  Q 356.91 253.07 357.43 253.15
  Q 358.76 253.36 359.99 253.70
  C 362.73 254.47 366.13 253.85 369.05 254.24
  C 376.81 255.25 385.61 254.29 391.56 255.68
  Q 396.52 256.83 405.26 257.74
  Q 407.81 258.01 408.62 260.67
  Z
  M 280.53 226.31
  L 281.02 224.27
  A 0.24 0.24 0.0 0 0 280.61 224.06
  Q 279.59 225.17 279.81 226.67
  Q 279.88 227.16 279.44 227.39
  C 262.64 236.30 251.77 249.62 250.50 268.53
  C 248.79 293.95 267.51 314.20 291.50 318.84
  C 317.65 323.89 345.69 310.27 353.04 283.45
  C 360.81 255.09 340.37 229.08 312.79 223.66
  C 307.77 222.67 301.84 223.23 296.45 223.38
  C 290.97 223.52 286.23 225.20 281.03 226.78
  A 0.40 0.40 0.0 0 1 280.53 226.31
  Z"
/>
<path fill="#d20000" d="
  M 281.03 226.78
  C 286.23 225.20 290.97 223.52 296.45 223.38
  C 301.84 223.23 307.77 222.67 312.79 223.66
  C 340.37 229.08 360.81 255.09 353.04 283.45
  C 345.69 310.27 317.65 323.89 291.50 318.84
  C 267.51 314.20 248.79 293.95 250.50 268.53
  C 251.77 249.62 262.64 236.30 279.44 227.39
  Q 279.88 227.16 279.81 226.67
  Q 279.59 225.17 280.61 224.06
  A 0.24 0.24 0.0 0 1 281.02 224.27
  L 280.53 226.31
  A 0.40 0.40 0.0 0 0 281.03 226.78
  Z"
/>
<path fill="#ffffff" d="
  M 83.03 239.82
  Q 83.56 239.48 83.69 238.47
  Q 84.06 235.68 85.41 231.35
  Q 85.56 230.87 86.05 231.01
  L 90.25 232.19
  Q 90.82 232.35 90.73 232.93
  Q 90.02 237.68 88.74 242.21
  C 86.35 250.70 82.26 249.17 75.42 247.98
  C 65.14 246.19 69.80 233.72 70.98 228.03
  A 0.57 0.57 0.0 0 1 71.71 227.60
  L 76.22 228.99
  Q 76.85 229.18 76.73 229.83
  Q 76.28 232.33 75.58 234.69
  Q 75.14 236.17 75.65 237.18
  A 0.96 0.96 0.0 0 0 77.46 236.93
  L 78.53 231.23
  A 0.64 0.63 -78.6 0 1 79.29 230.72
  L 83.04 231.56
  A 0.66 0.65 11.6 0 1 83.54 232.31
  L 82.20 239.27
  A 0.54 0.54 0.0 0 0 83.03 239.82
  Z"
/>
<path fill="#ffffff" d="
  M 67.34 252.37
  C 74.90 253.66 89.52 252.06 85.98 265.42
  Q 85.86 265.85 85.42 265.81
  L 81.23 265.47
  Q 80.63 265.42 80.55 264.83
  Q 80.32 263.00 77.75 262.75
  Q 72.21 262.21 66.67 261.67
  Q 66.11 261.62 66.16 261.06
  L 66.81 252.78
  Q 66.85 252.28 67.34 252.37
  Z"
/>
<path fill="#000000" d="
  M 504.34 289.34
  Q 525.42 306.62 536.13 318.37
  C 540.31 322.95 546.24 330.92 550.46 330.53
  C 551.11 332.48 549.62 333.70 550.94 335.53
  Q 564.48 354.33 571.58 377.93
  Q 574.14 386.43 574.83 393.65
  C 575.08 396.22 576.33 398.86 575.95 401.94
  A 1.63 1.59 36.0 0 0 576.11 402.86
  C 577.34 405.35 576.95 407.88 577.14 410.05
  Q 578.19 421.72 577.62 433.42
  Q 577.60 433.98 577.09 434.21
  L 576.76 434.37
  Q 576.27 434.61 576.26 435.15
  C 576.17 438.00 576.93 440.48 576.45 443.21
  C 575.59 448.10 574.24 452.99 573.43 457.71
  C 566.26 499.39 545.89 540.85 514.86 569.91
  C 512.32 572.29 508.23 575.32 505.06 578.19
  C 501.60 581.31 497.49 583.51 493.74 586.26
  C 491.14 588.17 487.59 589.84 484.70 591.95
  Q 482.67 593.44 481.08 594.21
  C 452.32 608.14 419.62 613.12 388.93 609.07
  Q 352.17 604.22 322.49 580.72
  Q 298.54 561.77 284.81 550.44
  C 281.95 548.09 279.70 545.64 277.24 542.88
  Q 291.34 544.20 302.50 543.05
  Q 315.57 556.20 329.25 567.42
  Q 335.01 572.14 340.87 575.17
  Q 365.66 587.96 393.26 590.51
  C 409.57 592.02 427.46 591.68 443.50 587.53
  C 476.46 579.01 502.58 557.51 521.60 529.13
  C 537.29 505.72 549.44 479.60 553.49 451.50
  C 557.28 425.17 555.60 394.87 545.85 368.48
  Q 545.82 368.39 545.21 366.52
  Q 544.01 362.82 541.88 364.75
  C 540.53 360.13 539.83 355.16 537.29 351.08
  Q 524.61 330.72 505.75 315.71
  A 1.02 1.00 56.7 0 0 504.86 315.52
  L 502.04 316.29
  Q 502.51 314.42 502.17 312.67
  Q 502.08 312.18 501.68 311.89
  Q 498.91 309.85 493.72 305.79
  Q 471.01 287.99 442.74 280.27
  Q 439.28 279.32 425.92 276.39
  Q 425.42 276.27 425.15 275.84
  L 424.17 274.24
  Q 427.44 268.86 428.31 264.15
  C 430.23 263.24 431.48 262.52 433.64 262.93
  Q 448.01 265.61 461.75 270.54
  Q 462.26 270.72 462.78 270.57
  Q 463.61 270.32 464.12 270.94
  Q 464.45 271.35 464.95 271.53
  Q 484.93 278.46 502.95 289.54
  Q 503.35 289.78 503.66 289.74
  Q 504.08 289.68 504.34 289.34
  Z"
/>
<path fill="#ffffff" d="
  M 76.4849 300.4693
  A 17.62 10.13 88.0 0 1 65.7462 283.2135
  A 17.62 10.13 88.0 0 1 75.2551 265.2507
  A 17.62 10.13 88.0 0 1 85.9938 282.5065
  A 17.62 10.13 88.0 0 1 76.4849 300.4693
  Z
  M 76.1191 289.6212
  A 6.90 4.21 87.1 0 0 79.9746 282.5170
  A 6.90 4.21 87.1 0 0 75.4209 275.8388
  A 6.90 4.21 87.1 0 0 71.5654 282.9430
  A 6.90 4.21 87.1 0 0 76.1191 289.6212
  Z"
/>
<ellipse fill="#d20000" cx="0.00" cy="0.00" transform="translate(75.77,282.73) rotate(87.1)" rx="6.90" ry="4.21"/>
<path fill="#ffffff" d="
  M 386.71 328.08
  Q 386.13 328.01 385.75 327.72
  L 405.08 288.64
  Q 405.21 288.38 405.48 288.49
  Q 405.62 288.54 405.74 288.58
  Q 405.80 288.60 405.77 288.65
  L 386.71 328.08
  Z"
/>
<path fill="#000000" d="
  M 207.04 290.93
  L 210.16 293.37
  Q 210.54 293.67 210.61 294.14
  C 211.10 297.10 211.12 300.78 211.34 302.98
  C 214.26 331.26 223.04 359.27 245.50 378.24
  Q 252.16 383.86 261.98 386.76
  Q 272.81 389.95 278.01 389.95
  Q 280.20 389.95 281.77 390.24
  C 286.78 391.15 292.13 390.76 297.22 390.74
  A 1.40 1.36 28.0 0 0 297.97 390.52
  C 299.44 389.58 300.97 389.97 302.12 389.79
  Q 314.79 387.73 319.75 385.49
  C 344.78 374.23 362.47 352.61 375.78 329.29
  Q 377.39 326.46 381.92 326.11
  L 385.75 327.72
  Q 386.13 328.01 386.71 328.08
  L 392.53 330.59
  L 392.50 332.29
  Q 392.49 332.80 392.73 333.26
  Q 393.65 335.02 392.31 337.30
  Q 380.03 358.08 365.44 373.85
  C 362.01 377.55 357.60 382.16 353.55 385.27
  C 351.78 386.63 350.30 388.42 348.53 389.56
  C 334.32 398.67 324.81 404.10 309.54 409.01
  Q 308.27 409.42 305.34 409.46
  Q 304.86 409.47 304.44 409.73
  C 292.73 416.94 290.25 433.38 287.55 445.90
  Q 285.11 457.18 285.48 468.81
  C 285.60 472.63 284.14 477.01 284.77 480.75
  Q 285.31 483.94 285.26 485.16
  Q 283.82 485.04 284.22 487.04
  A 0.68 0.67 84.7 0 1 283.56 487.84
  Q 274.95 487.84 266.51 486.72
  Q 261.71 486.08 260.07 485.03
  Q 260.78 479.49 259.91 473.71
  C 258.09 461.68 257.56 449.62 254.76 438.49
  C 252.17 428.17 250.21 416.78 245.58 407.15
  C 244.84 405.62 245.15 404.27 244.49 402.80
  Q 243.72 401.09 243.15 399.33
  Q 242.99 398.84 242.55 398.59
  Q 224.16 388.18 212.76 370.96
  C 211.88 369.64 210.62 368.72 210.00 367.47
  C 206.92 361.31 203.02 354.75 200.48 349.14
  C 193.52 333.78 191.08 317.94 189.50 301.25
  Q 189.02 296.27 189.09 293.83
  Q 189.10 293.27 189.60 293.02
  Q 193.07 291.26 197.09 291.40
  L 198.97 289.98
  A 1.08 1.07 31.2 0 1 199.80 289.78
  L 207.04 290.93
  Z
  M 191.98 297.73
  Q 192.01 299.62 192.52 302.75
  Q 196.42 326.81 201.56 346.83
  C 202.54 350.67 203.84 353.83 205.74 357.04
  A 0.87 0.86 25.0 0 0 207.34 356.46
  C 205.77 347.01 202.59 336.71 201.14 328.79
  Q 198.71 315.60 197.29 302.24
  Q 197.08 300.25 195.55 296.29
  Q 195.31 295.67 194.69 295.92
  L 192.59 296.79
  A 0.99 0.98 -12.1 0 0 191.98 297.73
  Z
  M 378.71 336.95
  C 364.60 358.52 346.78 379.89 322.63 391.24
  Q 322.56 391.27 322.44 391.30
  Q 322.16 391.36 322.25 391.72
  Q 322.34 392.11 322.72 391.95
  C 332.93 387.73 343.22 382.95 351.64 375.78
  Q 370.04 360.14 382.43 339.12
  Q 383.94 336.55 385.03 333.56
  A 0.86 0.86 0.0 0 0 384.19 332.41
  C 381.34 332.52 380.44 334.30 378.71 336.95
  Z"
/>
<path fill="#ffffff" d="
  M 192.59 296.79
  L 194.69 295.92
  Q 195.31 295.67 195.55 296.29
  Q 197.08 300.25 197.29 302.24
  Q 198.71 315.60 201.14 328.79
  C 202.59 336.71 205.77 347.01 207.34 356.46
  A 0.87 0.86 25.0 0 1 205.74 357.04
  C 203.84 353.83 202.54 350.67 201.56 346.83
  Q 196.42 326.81 192.52 302.75
  Q 192.01 299.62 191.98 297.73
  A 0.99 0.98 -12.1 0 1 192.59 296.79
  Z"
/>
<path fill="#ffffff" d="
  M 78.66 306.45
  A 0.67 0.67 0.0 0 0 79.70 306.70
  L 86.26 301.25
  A 0.44 0.44 0.0 0 1 86.98 301.51
  L 88.42 310.12
  Q 88.50 310.63 88.17 311.03
  C 84.82 314.96 82.57 317.67 77.68 317.44
  Q 77.35 317.43 77.25 317.11
  L 75.90 312.90
  A 0.74 0.73 -57.2 0 0 74.47 313.21
  L 75.09 318.47
  Q 75.15 319.03 75.72 318.95
  L 89.02 317.09
  Q 89.57 317.02 89.66 317.57
  L 90.99 325.49
  A 0.63 0.62 79.8 0 1 90.50 326.20
  L 72.14 330.08
  Q 71.63 330.18 71.51 329.68
  C 69.99 323.41 65.26 303.81 73.25 302.68
  C 75.65 302.34 77.76 304.37 78.66 306.45
  Z"
/>
<path fill="#ffffff" d="
  M 378.71 336.95
  C 380.44 334.30 381.34 332.52 384.19 332.41
  A 0.86 0.86 0.0 0 1 385.03 333.56
  Q 383.94 336.55 382.43 339.12
  Q 370.04 360.14 351.64 375.78
  C 343.22 382.95 332.93 387.73 322.72 391.95
  Q 322.34 392.11 322.25 391.72
  Q 322.16 391.36 322.44 391.30
  Q 322.56 391.27 322.63 391.24
  C 346.78 379.89 364.60 358.52 378.71 336.95
  Z"
/>
<path fill="#ffffff" d="
  M 81.58 345.03
  L 82.89 349.20
  Q 83.14 349.97 83.91 349.73
  L 96.22 345.88
  Q 96.71 345.72 96.87 346.22
  L 99.66 354.77
  Q 99.79 355.20 99.39 355.37
  Q 92.70 358.22 87.58 359.62
  C 78.19 362.19 70.55 337.18 78.55 333.29
  C 84.11 330.58 87.97 340.84 88.69 345.07
  Q 88.77 345.56 88.29 345.70
  L 84.18 346.86
  A 0.64 0.63 -22.1 0 1 83.46 346.56
  L 82.41 344.67
  A 0.46 0.45 -68.3 0 0 81.58 345.03
  Z"
/>
<path fill="#ffffff" d="
  M 517.84 368.06
  Q 517.02 368.75 516.99 369.87
  A 1.05 1.04 10.2 0 1 515.61 370.82
  L 511.44 369.42
  Q 510.79 369.20 511.02 368.55
  L 513.46 361.61
  Q 513.62 361.15 514.03 360.89
  C 519.97 357.04 525.54 362.02 525.56 368.25
  C 525.60 388.13 497.57 389.31 499.57 368.57
  Q 499.75 366.62 502.01 360.86
  Q 502.21 360.33 502.75 360.49
  L 509.18 362.33
  A 0.44 0.44 0.0 0 1 509.35 363.09
  C 500.64 370.83 514.63 382.80 519.16 368.96
  A 0.83 0.83 0.0 0 0 517.84 368.06
  Z"
/>
<path fill="#ffffff" d="
  M 480.89 418.62
  C 474.89 414.13 478.74 405.97 485.06 404.06
  Q 485.58 403.90 485.47 403.36
  C 483.97 395.89 490.08 389.56 497.57 393.40
  Q 504.60 397.00 511.65 400.63
  Q 512.20 400.91 511.91 401.45
  L 508.28 408.46
  Q 507.97 409.06 507.38 408.71
  C 503.49 406.39 496.50 401.56 492.30 400.82
  A 1.00 0.99 -24.8 0 0 491.62 402.66
  L 505.95 410.92
  Q 506.69 411.34 506.25 412.08
  L 502.42 418.40
  A 0.86 0.85 31.9 0 1 501.23 418.67
  C 497.42 416.26 491.28 411.49 487.14 410.16
  A 1.09 1.08 70.5 0 0 486.22 412.10
  L 499.99 421.16
  A 0.65 0.63 33.7 0 1 500.18 422.05
  L 495.92 428.38
  Q 495.62 428.83 495.17 428.54
  Q 487.85 423.81 480.89 418.62
  Z"
/>
<rect fill="#ffffff" x="-2.49" y="-4.72" transform="translate(475.89,436.28) rotate(39.0)" width="4.98" height="9.44" rx="0.61"/>
<path fill="#ffffff" d="
  M 460.68 459.82
  Q 454.09 453.88 448.14 447.09
  A 0.62 0.61 -42.6 0 1 448.18 446.24
  L 453.09 441.52
  Q 453.44 441.18 453.79 441.52
  L 465.36 452.70
  Q 465.94 453.26 466.52 452.71
  L 468.36 450.97
  A 0.41 0.40 -45.5 0 1 468.92 450.96
  L 473.43 455.10
  Q 473.73 455.38 473.51 455.73
  C 471.02 459.74 464.92 463.64 460.68 459.82
  Z"
/>
<path fill="#ffffff" d="
  M 453.06 473.94
  Q 453.38 474.04 453.56 474.30
  A 0.67 0.67 0.0 0 1 453.43 475.20
  L 447.34 480.05
  Q 446.92 480.39 446.58 479.96
  L 436.47 467.16
  Q 436.18 466.79 435.71 466.79
  C 431.51 466.81 434.16 471.33 435.70 472.92
  Q 436.07 473.29 436.51 473.00
  L 437.73 472.20
  Q 438.29 471.82 438.70 472.36
  L 441.95 476.64
  A 0.53 0.52 -35.4 0 1 441.82 477.39
  L 440.59 478.23
  Q 439.99 478.63 440.40 479.23
  L 442.85 482.80
  Q 443.17 483.27 442.71 483.62
  L 436.60 488.12
  Q 436.12 488.47 435.79 487.99
  Q 432.37 483.08 429.02 478.21
  C 425.27 472.76 423.56 468.36 428.59 463.32
  C 432.83 459.08 438.11 456.98 442.77 461.90
  Q 448.22 467.65 453.06 473.94
  Z"
/>
<path fill="#ffffff" d="
  M 413.44 495.84
  L 415.75 500.51
  A 0.57 0.57 0.0 0 1 415.50 501.27
  L 408.72 504.75
  A 0.61 0.61 0.0 0 1 407.90 504.49
  Q 404.57 498.12 401.46 491.55
  C 397.79 483.82 405.62 473.67 413.94 476.95
  A 0.60 0.60 0.0 0 1 414.29 477.71
  C 413.40 480.22 412.39 484.89 408.79 483.94
  A 0.61 0.61 0.0 0 0 408.02 484.55
  Q 408.08 486.91 409.49 488.83
  Q 409.85 489.31 410.40 489.08
  L 411.77 488.52
  A 0.68 0.68 0.0 0 1 412.64 488.85
  L 414.90 493.25
  Q 415.18 493.79 414.72 494.19
  L 413.57 495.17
  Q 413.24 495.45 413.44 495.84
  Z"
/>
<rect fill="#ffffff" x="-4.25" y="-12.47" transform="translate(384.84,501.89) rotate(-21.8)" width="8.50" height="24.94" rx="0.29"/>
<path fill="#ffffff" d="
  M 355.72 505.57
  C 353.63 505.08 353.12 506.86 353.43 508.53
  Q 354.81 515.95 356.87 523.33
  Q 357.03 523.88 356.47 524.00
  L 348.56 525.77
  Q 348.09 525.88 347.98 525.40
  Q 346.35 518.21 345.25 511.02
  C 344.55 506.38 345.30 503.43 349.31 500.76
  C 355.68 496.53 363.06 497.74 365.68 505.62
  Q 368.02 512.64 370.05 519.78
  Q 370.20 520.32 369.66 520.47
  L 362.07 522.52
  Q 361.56 522.66 361.42 522.14
  L 357.38 507.18
  A 2.26 2.26 0.0 0 0 355.72 505.57
  Z"
/>
<path fill="#ffffff" d="
  M 321.44 523.56
  A 1.41 1.41 0.0 0 0 323.04 522.05
  L 321.64 504.99
  Q 321.61 504.59 322.00 504.54
  L 329.29 503.59
  A 0.45 0.45 0.0 0 1 329.80 503.98
  C 330.55 509.41 332.20 518.06 331.83 521.95
  C 331.11 529.42 322.39 531.32 316.03 529.90
  C 310.93 528.76 309.88 525.56 309.56 520.52
  Q 309.10 513.24 309.01 506.06
  A 0.73 0.73 0.0 0 1 309.70 505.32
  L 316.51 504.96
  Q 317.29 504.92 317.35 505.70
  L 318.64 522.48
  Q 318.69 523.17 319.38 523.27
  L 321.44 523.56
  Z"
/>
</svg>
