<?xml version="1.0" encoding="UTF-8" standalone="no"?>
<svg
   xmlns:dc="http://purl.org/dc/elements/1.1/"
   xmlns:cc="http://creativecommons.org/ns#"
   xmlns:rdf="http://www.w3.org/1999/02/22-rdf-syntax-ns#"
   xmlns:svg="http://www.w3.org/2000/svg"
   xmlns="http://www.w3.org/2000/svg"
   viewBox="0 0 1333.3333 1333.3333"
   height="1333.3333"
   width="1333.3333"
   xml:space="preserve"
   id="svg2"
   version="1.1"><metadata
     id="metadata8"><rdf:RDF><cc:Work
         rdf:about=""><dc:format>image/svg+xml</dc:format><dc:type
           rdf:resource="http://purl.org/dc/dcmitype/StillImage" /></cc:Work></rdf:RDF></metadata><defs
     id="defs6"><clipPath
       id="clipPath18"
       clipPathUnits="userSpaceOnUse"><path
         id="path16"
         d="M 0,1000 H 1000 V 0 H 0 Z" /></clipPath></defs><g
     transform="matrix(1.3333333,0,0,-1.3333333,0,1333.3333)"
     id="g10"><g
       id="g12"><g
         clip-path="url(#clipPath18)"
         id="g14"><g
           transform="translate(620.4082,92.9087)"
           id="g20"><path
             id="path22"
             style="fill:#009cba;fill-opacity:1;fill-rule:nonzero;stroke:none"
             d="m 0,0 c 11.023,-23.982 -56.259,-36.409 -123.662,-36.409 -65.857,0 -131.829,11.866 -124.97,36.409 10.529,37.67 58.532,96.785 13.068,227.594 0.005,0.003 0.01,0.005 0.015,0.007 -10.2,29.346 -25.161,62.334 -46.246,99.462 9.99,5.886 17.843,13.662 23.223,23.018 17.543,-25.423 35.513,-52.47 56.919,-92.279 2.297,-4.271 10.778,-20.544 12.361,-23.666 5.08,-10.022 14.637,-15.681 23.513,-15.681 10.526,0 20.093,7.96 20.093,26.04 0,6.996 -0.066,16.721 -0.171,27.907 13.854,6.056 26.392,13.51 37.015,22.33 1.115,-8.567 2.155,-16.219 3.045,-22.266 3.12,-21.2 11.377,-29.566 21.075,-29.566 9.727,0 20.904,8.417 29.801,20.744 7.416,10.276 18.725,26.818 31.683,44.796 16.616,2.443 32.55,7.23 47.774,14.283 C -6.426,278.515 -37.686,211.683 -37.26,122.214 -37.046,77.377 -14.009,30.476 0,0" /></g><g
           transform="translate(829.3397,97.2361)"
           id="g24"><path
             id="path26"
             style="fill:#009cba;fill-opacity:1;fill-rule:nonzero;stroke:none"
             d="m 0,0 c -13.322,4.577 -26.797,8.709 -40.398,12.371 -56.874,15.898 -115.69,25.047 -174.643,30.127 4.349,-10.818 8.974,-21.07 13.273,-30.397 C -132.098,8.42 -62.613,1.585 6.452,-9.083 l 1.921,5.999 C 5.584,-2.051 2.813,-0.967 0,0 m -460.919,24.588 c 2.203,5.235 4.564,10.866 6.897,16.936 -17.745,-1.771 -35.444,-3.881 -53.055,-6.461 -37.398,-5.48 -74.654,-12.509 -111.082,-22.692 -16.489,-4.439 -32.875,-9.487 -48.893,-15.423 l 1.888,-5.897 c 65.694,11.173 132.453,17.488 199.059,20.909 1.563,3.999 3.307,8.162 5.186,12.628" /></g><g
           transform="translate(887.373,574.5016)"
           id="g28"><path
             id="path30"
             style="fill:#00e2ca;fill-opacity:1;fill-rule:nonzero;stroke:none"
             d="m 0,0 c -11.607,-37.144 -57.192,-77.876 -129.844,-79.531 -42.731,-0.933 -74.97,7.538 -88.373,23.357 -5.446,6.427 -7.322,13.62 -5.733,21.98 4.215,22.18 19.203,23.543 68.498,16.681 57.32,-7.94 88.307,16.054 89.599,17.08 5.83,4.636 6.781,13.054 2.207,18.932 -4.569,5.875 -13.071,6.932 -19.012,2.425 -0.96,-0.726 -23.993,-17.77 -69.052,-11.515 -25.881,3.598 -53.883,7.476 -73.78,-2.127 -125.879,42.579 -102.922,152.854 -101.874,157.566 1.655,7.303 -2.915,14.571 -10.218,16.243 -7.286,1.668 -14.602,-2.893 -16.279,-10.21 -2.889,-12.607 -4.232,-28.852 -2.528,-46.67 -31.351,-4.397 -56.221,0.707 -73.986,15.281 -24.055,19.738 -36.291,57.413 -36.37,111.986 -0.047,32.387 -14.691,56.861 -41.01,70.213 17.091,9.1 46.524,20.129 89.191,20.129 40.981,0 70.248,-7.752 105.712,-28.825 -2.523,-2.458 -4.946,-5.092 -7.24,-7.925 -5.544,-6.85 -9.603,-13.738 -12.522,-20.501 -38.248,19.568 -83.39,13.932 -85.552,13.653 -7.44,-0.982 -12.678,-7.812 -11.696,-15.252 0.982,-7.441 7.839,-12.687 15.253,-11.696 0.468,0.059 44.296,5.539 75.642,-14.34 -1.113,-25.048 9.77,-43.976 10.497,-45.21 3.805,-6.427 12.059,-8.538 18.512,-4.791 6.459,3.76 8.649,12.063 4.933,18.544 -0.756,1.314 -18.185,32.54 6.06,62.491 13.046,16.115 30.908,23.131 50.336,19.774 22.246,-3.854 41.651,-20.69 49.437,-42.891 14.394,-41.015 34.53,-83.601 83.972,-117.215 2.34,-1.592 4.999,-2.353 7.626,-2.353 4.348,0 8.622,2.083 11.25,5.949 4.22,6.207 2.609,14.656 -3.597,18.875 -34.751,23.632 -53.074,51.886 -66.958,86.124 27.544,-1.477 82.468,-12.659 129.803,-72.976 13.921,-17.739 28.492,-43.276 18.875,-64.204 -9.36,-20.37 -37.582,-29.899 -50.609,-30.469 -28.771,-1.278 -100.326,7.352 -144.893,114.432 -2.884,6.936 -10.86,10.214 -17.765,7.326 -6.932,-2.885 -10.21,-10.838 -7.325,-17.766 18.406,-44.227 41.27,-73.774 64.603,-93.444 -5.879,-3.817 -14.511,-7.31 -26.661,-7.557 -29.669,-0.623 -54.078,23.218 -54.32,23.459 -5.302,5.285 -13.879,5.296 -19.189,0.006 -5.313,-5.296 -5.331,-13.9 -0.034,-19.218 1.31,-1.316 32.651,-32.29 74.109,-31.423 6.955,0.147 13.207,1.031 18.819,2.422 13.788,3.419 23.663,9.881 30.339,15.923 30.164,-17.753 58.908,-21.445 77.478,-21.445 2.149,0 4.171,0.049 6.033,0.133 16.228,0.712 43.136,9.02 61.221,27.722 C 9.56,60.528 7.997,25.59 0,0 m -611.682,187.187 c -0.129,-0.217 -0.252,-0.438 -0.372,-0.664 -16.855,-32.213 -34.143,-89.488 -20.065,-139.539 -71.774,7.645 -103.093,-25.562 -113.747,-41.384 -1.339,-1.99 -2.556,-4.036 -3.7,-6.114 -14.36,18.115 -34.92,51.864 -30.348,92.595 2.413,21.497 8.341,44.444 31.127,68.693 0.828,-44.652 18.715,-80.898 19.907,-83.26 3.376,-6.693 11.533,-9.382 18.23,-6.002 6.697,3.365 9.395,11.532 6.043,18.233 -0.394,0.778 -38.485,78.451 1.141,137.682 38.511,57.551 80.729,43.457 85.405,41.661 3.486,-1.331 14.505,-8.249 19.291,-22.051 5.476,-15.814 1.013,-36.512 -12.912,-59.85 M 9.248,114.949 c 5.884,18.861 4.647,47.349 -24.96,85.079 -61.169,77.945 -134.797,84.176 -161.924,83.522 -12.866,26.476 -37.935,46.045 -66.353,50.971 -15.447,2.677 -30.488,0.872 -44.094,-4.919 -44.6,28.619 -80.444,39.396 -130.481,39.396 -72.758,0 -113.356,-29.063 -123.306,-37.211 -43.473,5.264 -69.78,-20.018 -80.656,-33.783 -22.289,3.354 -65.861,0.841 -103.527,-55.465 -9.006,-13.46 -14.82,-27.477 -18.326,-41.404 -48.726,-37.553 -59.02,-74.635 -62.545,-106.02 -7.192,-64.074 33.892,-111.831 47.81,-125.992 -2.222,-20.134 2.8,-41.285 15.08,-59.606 17.409,-25.982 56.302,-52.664 106.952,-60.9 17.896,-29.871 56.131,-51.524 102.196,-58.93 -4.771,10.203 -10.024,20.636 -15.678,31.243 -19.674,5.57 -36.694,14.263 -49.063,25.162 0.878,0.024 1.744,0.019 2.627,0.053 40.161,1.619 64.968,21.158 66.353,52.264 0.69,15.505 -5.729,29.811 -18.557,41.374 -25.909,23.348 -71.684,30.757 -103.568,25.988 -7.423,-1.106 -12.541,-8.024 -11.431,-15.447 1.106,-7.423 8.002,-12.528 15.447,-11.431 28.832,4.296 64.57,-4.175 81.353,-19.299 6.791,-6.118 9.931,-12.652 9.604,-19.977 -0.911,-20.446 -22.414,-25.594 -40.294,-26.311 -56.891,-2.292 -105.108,24.099 -123.364,51.34 -14.199,21.184 -14.911,46.389 -1.862,65.782 8.473,12.584 35.4,39.887 103.966,27.224 8.569,-13.93 20.583,-26.606 37.065,-37.071 40.405,-25.657 80.531,-34.698 116.56,-34.698 25.706,0.002 49.271,4.637 69.399,11.101 11.316,-15.598 41.585,-49.819 94.506,-59.057 0.788,-0.137 1.576,-0.208 2.354,-0.208 6.476,0 12.218,4.654 13.368,11.259 1.291,7.391 -3.654,14.429 -11.05,15.72 -37.415,6.534 -61.248,28.916 -72.677,42.577 15.074,6.979 26.681,14.402 33.688,20.163 5.794,4.763 6.63,13.327 1.867,19.127 -4.76,5.795 -13.319,6.636 -19.128,1.867 -31.57,-25.953 -125.495,-61.315 -214.316,-4.911 -33.402,21.212 -47.252,55.6 -41.165,102.22 4.583,35.096 19.176,64.751 20.768,67.905 18.243,30.731 23.294,58.413 15.023,82.292 -5.076,14.646 -14.301,24.847 -22.745,31.258 9.829,9.772 27.992,21.869 55.134,16.958 30.996,-5.596 46.734,-23.334 46.779,-52.72 0.069,-46.904 8.715,-83.641 25.732,-109.744 -22.427,-13.014 -62.75,-43.549 -66.884,-96.627 -0.58,-7.48 5.012,-14.018 12.496,-14.602 0.359,-0.027 0.712,-0.04 1.066,-0.04 7.029,0 12.979,5.41 13.536,12.537 3.43,44.061 41.948,69.114 57.936,77.678 0.812,-0.714 1.593,-1.471 2.428,-2.156 18.68,-15.323 42.258,-23.019 70.378,-23.019 8.169,0 16.742,0.68 25.67,1.98 11.106,-41.54 40.787,-85.939 105.546,-111.571 -1.969,-4.343 -3.549,-9.29 -4.632,-14.994 -3.127,-16.465 0.92,-31.894 11.7,-44.62 5.958,-7.033 13.727,-12.961 23.128,-17.787 -40.126,-38.671 -83.408,-46.659 -120.985,-42.262 1.037,-8.973 0.646,-17.883 -0.479,-26.764 6.635,-0.735 13.414,-1.158 20.318,-1.158 41.611,0 87.398,14.746 129.299,60.185 14.808,-3.465 31.875,-5.255 51.058,-5.254 2.424,0 4.892,0.027 7.387,0.084 38.808,0.88 74.444,11.802 103.051,31.575 25.639,17.721 44.147,41.524 52.114,67.017 C 36.9,26.951 37.773,76.736 9.248,114.949" /></g><g
           transform="translate(503.3801,364.1034)"
           id="g32"><path
             id="path34"
             style="fill:#009cba;fill-opacity:1;fill-rule:nonzero;stroke:none"
             d="M 0,0 C 35.871,14.82 33.594,66.136 32.251,79.559 30.908,92.982 17.036,148.706 -45.264,133.586 -94.767,121.571 -95.942,75.604 -89.056,54.1 -77.267,17.288 -35.933,-14.846 0,0" /></g></g></g></g></svg>